<?xml version="1.0" encoding="UTF-8" standalone="no"?>
<!-- Created with Inkscape (http://www.inkscape.org/) -->

<svg
   xmlns:dc="http://purl.org/dc/elements/1.1/"
   xmlns:cc="http://creativecommons.org/ns#"
   xmlns:rdf="http://www.w3.org/1999/02/22-rdf-syntax-ns#"
   xmlns:svg="http://www.w3.org/2000/svg"
   xmlns="http://www.w3.org/2000/svg"
   xmlns:sodipodi="http://sodipodi.sourceforge.net/DTD/sodipodi-0.dtd"
   xmlns:inkscape="http://www.inkscape.org/namespaces/inkscape"
   version="1.1"
   id="svg3699"
   xml:space="preserve"
   width="1866.6667"
   height="1306.6667"
   viewBox="0 0 1866.6667 1306.6667"
   sodipodi:docname="CheeseWheel.svg"
   inkscape:version="0.92.2 (5c3e80d, 2017-08-06)"><metadata
     id="metadata3705"><rdf:RDF><cc:Work
         rdf:about=""><dc:format>image/svg+xml</dc:format><dc:type
           rdf:resource="http://purl.org/dc/dcmitype/StillImage" /><dc:title></dc:title></cc:Work></rdf:RDF></metadata><defs
     id="defs3703"><clipPath
       clipPathUnits="userSpaceOnUse"
       id="clipPath3717"><path
         d="M 0,980 H 1400 V 0 H 0 Z"
         id="path3715"
         inkscape:connector-curvature="0" /></clipPath><clipPath
       clipPathUnits="userSpaceOnUse"
       id="clipPath3741"><path
         d="m 806.88,725.614 c -1.075,-1.851 -48.665,-79.983 -48.665,-79.983 v 0 c 0,0 3.815,-28.959 5.592,-36.11 v 0 c 1.774,-7.149 11.283,-4.075 39.443,36.11 v 0 c 28.157,40.184 42.262,80.671 39.183,82.221 v 0 c -1.503,0.756 -7.795,-7.775 -14.247,-16.305 v 0 c -6.767,-8.948 -13.709,-17.895 -15.479,-16.124 v 0 c -1.649,1.649 14.3,25.081 17.82,32.562 v 0 c 3.52,7.478 -5.719,3.585 -11.88,-3.67 v 0 c -2.206,-2.601 -17.16,-20.532 -12.758,-8.388 v 0 c 4.397,12.143 15.211,18.723 14.077,19.644 v 0 c -0.091,0.074 -0.23,0.109 -0.411,0.109 v 0 c -2.063,0 -9.543,-4.654 -12.675,-10.066"
         id="path3739"
         inkscape:connector-curvature="0" /></clipPath><linearGradient
       x1="0"
       y1="0"
       x2="1"
       y2="0"
       gradientUnits="userSpaceOnUse"
       gradientTransform="matrix(39.755074,-56.282551,-56.282551,-39.755074,760.81519,728.26959)"
       spreadMethod="pad"
       id="linearGradient3755"><stop
         style="stop-opacity:1;stop-color:#ffffff"
         offset="0"
         id="stop3751" /><stop
         style="stop-opacity:0;stop-color:#ffffff"
         offset="1"
         id="stop3753" /></linearGradient><mask
       maskUnits="userSpaceOnUse"
       x="0"
       y="0"
       width="1"
       height="1"
       id="mask3757"><g
         id="g3767"><g
           id="g3765"><g
             id="g3763"><g
               id="g3761"><path
                 d="M -32768,32767 H 32767 V -32768 H -32768 Z"
                 style="fill:url(#linearGradient3755);stroke:none"
                 id="path3759"
                 inkscape:connector-curvature="0" /></g></g></g></g></mask><linearGradient
       x1="0"
       y1="0"
       x2="1"
       y2="0"
       gradientUnits="userSpaceOnUse"
       gradientTransform="matrix(39.755074,-56.282551,-56.282551,-39.755074,760.81519,728.26959)"
       spreadMethod="pad"
       id="linearGradient3777"><stop
         style="stop-opacity:1;stop-color:#ffffff"
         offset="0"
         id="stop3773" /><stop
         style="stop-opacity:1;stop-color:#ffffff"
         offset="1"
         id="stop3775" /></linearGradient><clipPath
       clipPathUnits="userSpaceOnUse"
       id="clipPath3787"><path
         d="M 0,980 H 1400 V 0 H 0 Z"
         id="path3785"
         inkscape:connector-curvature="0" /></clipPath><clipPath
       clipPathUnits="userSpaceOnUse"
       id="clipPath3939"><path
         d="m 681.442,723.577 c -3.681,-3.535 15.772,-34.534 8.423,-35.855 v 0 c -3.712,-0.667 -6.708,7.432 -9.797,15.529 v 0 c -3.029,7.94 -6.148,15.879 -10.119,15.558 v 0 c -8.017,-0.645 3.507,-28.447 1.689,-29.981 v 0 c -1.819,-1.535 -9.183,14.292 -10.282,19.578 v 0 c -1.101,5.286 2.789,11.875 -0.879,7.485 v 0 c -3.669,-4.389 -1.6,-11.585 0,-14.969 v 0 c 10.216,-21.617 24.796,-45.354 42.091,-83.094 v 0 c 16.474,-35.955 25.224,-38.34 27.643,-38.999 v 0 c 2.421,-0.659 -8.359,7.039 -12.457,13.921 v 0 c -4.099,6.881 -5.359,19.737 1.9,6.316 v 0 c 7.261,-13.418 22.877,-19.796 24.858,-19.33 v 0 c 1.978,0.464 -27.058,30.991 -21.998,32.67 v 0 c 2.561,0.851 9.012,-6.486 15.302,-13.822 v 0 c 6.129,-7.148 12.106,-14.296 14.186,-13.871 v 0 c 4.212,0.861 -38.729,99.709 -45.274,111.588 v 0 c -5.898,10.708 -17.903,27.927 -23.642,27.926 v 0 c -0.628,0 -1.182,-0.207 -1.644,-0.65"
         id="path3937"
         inkscape:connector-curvature="0" /></clipPath><linearGradient
       x1="0"
       y1="0"
       x2="1"
       y2="0"
       gradientUnits="userSpaceOnUse"
       gradientTransform="matrix(126.71198,-14.95905,-14.95905,-126.71198,579.57812,666.5318)"
       spreadMethod="pad"
       id="linearGradient3953"><stop
         style="stop-opacity:1;stop-color:#ffffff"
         offset="0"
         id="stop3949" /><stop
         style="stop-opacity:0;stop-color:#ffffff"
         offset="1"
         id="stop3951" /></linearGradient><mask
       maskUnits="userSpaceOnUse"
       x="0"
       y="0"
       width="1"
       height="1"
       id="mask3955"><g
         id="g3965"><g
           id="g3963"><g
             id="g3961"><g
               id="g3959"><path
                 d="M -32768,32767 H 32767 V -32768 H -32768 Z"
                 style="fill:url(#linearGradient3953);stroke:none"
                 id="path3957"
                 inkscape:connector-curvature="0" /></g></g></g></g></mask><linearGradient
       x1="0"
       y1="0"
       x2="1"
       y2="0"
       gradientUnits="userSpaceOnUse"
       gradientTransform="matrix(126.71198,-14.95905,-14.95905,-126.71198,579.57812,666.5318)"
       spreadMethod="pad"
       id="linearGradient3975"><stop
         style="stop-opacity:1;stop-color:#ffffff"
         offset="0"
         id="stop3971" /><stop
         style="stop-opacity:1;stop-color:#ffffff"
         offset="1"
         id="stop3973" /></linearGradient><clipPath
       clipPathUnits="userSpaceOnUse"
       id="clipPath3985"><path
         d="m 640.457,727.985 c -4.248,-1.929 -13.304,-15.972 -13.304,-15.972 v 0 c 0,0 -52.425,-79.977 -53.376,-85.777 v 0 c -1.063,-6.467 7.01,6.001 8.577,7.998 v 0 c 1.233,1.571 4.206,3.157 -1.31,-9.938 v 0 c -5.764,-13.695 -0.642,-25.449 -0.575,-17.998 v 0 c 0.067,7.448 12.911,27.529 16.575,26.207 v 0 c 3.664,-1.318 -8.725,-24.078 -8.74,-35.028 v 0 c -0.016,-10.951 13.657,9.73 23.336,22.078 v 0 c 9.679,12.349 26.849,68.54 30.578,75.136 v 0 c 0.828,1.468 8.744,19.99 11.782,25.244 v 0 c 6.366,11.015 -1.056,7.458 -6.504,4.293 v 0 c -12.649,-7.356 -21.779,-30.786 -16.058,-13.871 v 0 c 4.758,14.071 10.353,18.068 10.01,18.068 v 0 c -0.069,0 -0.381,-0.164 -0.991,-0.44"
         id="path3983"
         inkscape:connector-curvature="0" /></clipPath><linearGradient
       x1="0"
       y1="0"
       x2="1"
       y2="0"
       gradientUnits="userSpaceOnUse"
       gradientTransform="matrix(105.38103,-211.34779,-211.34779,-105.38103,546.33234,809.03162)"
       spreadMethod="pad"
       id="linearGradient4001"><stop
         style="stop-opacity:1;stop-color:#ffffff"
         offset="0"
         id="stop3995" /><stop
         style="stop-opacity:0.10388342;stop-color:#ffffff"
         offset="0.705158"
         id="stop3997" /><stop
         style="stop-opacity:0;stop-color:#ffffff"
         offset="1"
         id="stop3999" /></linearGradient><mask
       maskUnits="userSpaceOnUse"
       x="0"
       y="0"
       width="1"
       height="1"
       id="mask4003"><g
         id="g4013"><g
           id="g4011"><g
             id="g4009"><g
               id="g4007"><path
                 d="M -32768,32767 H 32767 V -32768 H -32768 Z"
                 style="fill:url(#linearGradient4001);stroke:none"
                 id="path4005"
                 inkscape:connector-curvature="0" /></g></g></g></g></mask><linearGradient
       x1="0"
       y1="0"
       x2="1"
       y2="0"
       gradientUnits="userSpaceOnUse"
       gradientTransform="matrix(105.38103,-211.34779,-211.34779,-105.38103,546.33234,809.03162)"
       spreadMethod="pad"
       id="linearGradient4025"><stop
         style="stop-opacity:1;stop-color:#ffffff"
         offset="0"
         id="stop4019" /><stop
         style="stop-opacity:1;stop-color:#ffffff"
         offset="0.705158"
         id="stop4021" /><stop
         style="stop-opacity:1;stop-color:#ffffff"
         offset="1"
         id="stop4023" /></linearGradient><clipPath
       clipPathUnits="userSpaceOnUse"
       id="clipPath4035"><path
         d="M 0,980 H 1400 V 0 H 0 Z"
         id="path4033"
         inkscape:connector-curvature="0" /></clipPath><clipPath
       clipPathUnits="userSpaceOnUse"
       id="clipPath4063"><path
         d="M 178.452,750.186 H 375.654 V 661.231 H 178.452 Z"
         id="path4061"
         inkscape:connector-curvature="0" /></clipPath><clipPath
       clipPathUnits="userSpaceOnUse"
       id="clipPath4067"><path
         d="m 375.654,705.71 c 0,-24.565 -44.145,-44.479 -98.602,-44.479 -54.455,0 -98.6,19.914 -98.6,44.479 0,24.562 44.145,44.476 98.6,44.476 54.457,0 98.602,-19.914 98.602,-44.476"
         id="path4065"
         inkscape:connector-curvature="0" /></clipPath><linearGradient
       x1="0"
       y1="0"
       x2="1"
       y2="0"
       gradientUnits="userSpaceOnUse"
       gradientTransform="matrix(70.020599,-281.51324,-281.51324,-70.020599,222.4828,925.10596)"
       spreadMethod="pad"
       id="linearGradient4077"><stop
         style="stop-opacity:1;stop-color:#ffffff"
         offset="0"
         id="stop4073" /><stop
         style="stop-opacity:0;stop-color:#ffffff"
         offset="1"
         id="stop4075" /></linearGradient><mask
       maskUnits="userSpaceOnUse"
       x="0"
       y="0"
       width="1"
       height="1"
       id="mask4079"><g
         id="g4089"><g
           id="g4087"><g
             id="g4085"><g
               id="g4083"><path
                 d="M -32768,32767 H 32767 V -32768 H -32768 Z"
                 style="fill:url(#linearGradient4077);stroke:none"
                 id="path4081"
                 inkscape:connector-curvature="0" /></g></g></g></g></mask><linearGradient
       x1="0"
       y1="0"
       x2="1"
       y2="0"
       gradientUnits="userSpaceOnUse"
       gradientTransform="matrix(70.020599,-281.51324,-281.51324,-70.020599,222.4828,925.10596)"
       spreadMethod="pad"
       id="linearGradient4095"><stop
         style="stop-opacity:1;stop-color:#ffffff"
         offset="0"
         id="stop4091" /><stop
         style="stop-opacity:1;stop-color:#ffffff"
         offset="1"
         id="stop4093" /></linearGradient><clipPath
       clipPathUnits="userSpaceOnUse"
       id="clipPath4221"><path
         d="m 386.768,692.772 h 92.845 v -67.738 h -92.845 z"
         id="path4219"
         inkscape:connector-curvature="0" /></clipPath><clipPath
       clipPathUnits="userSpaceOnUse"
       id="clipPath4225"><path
         d="m 419.952,691.561 -33.184,-66.527 92.845,51.895 c 0,0 -29.295,21.028 -59.661,14.632"
         id="path4223"
         inkscape:connector-curvature="0" /></clipPath><linearGradient
       x1="0"
       y1="0"
       x2="1"
       y2="0"
       gradientUnits="userSpaceOnUse"
       gradientTransform="matrix(32.866974,-86.454727,-86.454727,-32.866974,400.51648,736.92993)"
       spreadMethod="pad"
       id="linearGradient4235"><stop
         style="stop-opacity:1;stop-color:#ffffff"
         offset="0"
         id="stop4231" /><stop
         style="stop-opacity:0;stop-color:#ffffff"
         offset="1"
         id="stop4233" /></linearGradient><mask
       maskUnits="userSpaceOnUse"
       x="0"
       y="0"
       width="1"
       height="1"
       id="mask4237"><g
         id="g4247"><g
           id="g4245"><g
             id="g4243"><g
               id="g4241"><path
                 d="M -32768,32767 H 32767 V -32768 H -32768 Z"
                 style="fill:url(#linearGradient4235);stroke:none"
                 id="path4239"
                 inkscape:connector-curvature="0" /></g></g></g></g></mask><linearGradient
       x1="0"
       y1="0"
       x2="1"
       y2="0"
       gradientUnits="userSpaceOnUse"
       gradientTransform="matrix(32.866974,-86.454727,-86.454727,-32.866974,400.51648,736.92993)"
       spreadMethod="pad"
       id="linearGradient4253"><stop
         style="stop-opacity:1;stop-color:#ffffff"
         offset="0"
         id="stop4249" /><stop
         style="stop-opacity:1;stop-color:#ffffff"
         offset="1"
         id="stop4251" /></linearGradient><clipPath
       clipPathUnits="userSpaceOnUse"
       id="clipPath4283"><path
         d="m 567.144,425.806 h 271.67 V 291.532 h -271.67 z"
         id="path4281"
         inkscape:connector-curvature="0" /></clipPath><clipPath
       clipPathUnits="userSpaceOnUse"
       id="clipPath4287"><path
         d="M 566.498,425.807 H 839.839 V 288.762 H 566.498 Z"
         id="path4285"
         inkscape:connector-curvature="0" /></clipPath><mask
       maskUnits="userSpaceOnUse"
       x="0"
       y="0"
       width="1"
       height="1"
       id="mask4289"><g
         id="g4303"><g
           clip-path="url(#clipPath4283)"
           id="g4301"
           style="opacity:0.5"><path
             d="M 566.498,425.807 H 839.839 V 288.762 H 566.498 Z"
             style="fill:#000000;fill-opacity:1;fill-rule:nonzero;stroke:none"
             id="path4291"
             inkscape:connector-curvature="0" /><g
             id="g4299"><g
               id="g4293" /><g
               id="g4297"><g
                 clip-path="url(#clipPath4287)"
                 id="g4295" /></g></g></g></g></mask><clipPath
       clipPathUnits="userSpaceOnUse"
       id="clipPath4311"><path
         d="m 567.144,425.806 h 271.67 V 291.532 h -271.67 z"
         id="path4309"
         inkscape:connector-curvature="0" /></clipPath><clipPath
       clipPathUnits="userSpaceOnUse"
       id="clipPath4387"><path
         d="M 946.105,733.708 H 1269.56 V 616.196 H 946.105 Z"
         id="path4385"
         inkscape:connector-curvature="0" /></clipPath><clipPath
       clipPathUnits="userSpaceOnUse"
       id="clipPath4467"><path
         d="m 1134.196,432.199 c -25.238,-6.049 -43.271,-13.226 -92.146,-48.185 v 0 c -67.896,-48.559 -85.336,-63.267 -63.394,-87.541 v 0 c 22.558,-24.964 114.498,12.241 147.939,12.241 v 0 c 72.654,0 102.534,-44.713 148.283,-11.558 v 0 c 68.364,49.539 -1.896,102.576 -29.391,118.562 v 0 c -17.776,10.336 -45.498,20.473 -77.308,20.472 v 0 c -10.923,-10e-4 -22.335,-1.197 -33.983,-3.991"
         id="path4465"
         inkscape:connector-curvature="0" /></clipPath><linearGradient
       x1="0"
       y1="0"
       x2="1"
       y2="0"
       gradientUnits="userSpaceOnUse"
       gradientTransform="matrix(300.58118,-146.03737,-146.03737,-300.58118,872.65985,471.81247)"
       spreadMethod="pad"
       id="linearGradient4481"><stop
         style="stop-opacity:1;stop-color:#ffffff"
         offset="0"
         id="stop4477" /><stop
         style="stop-opacity:0;stop-color:#ffffff"
         offset="1"
         id="stop4479" /></linearGradient><mask
       maskUnits="userSpaceOnUse"
       x="0"
       y="0"
       width="1"
       height="1"
       id="mask4483"><g
         id="g4493"><g
           id="g4491"><g
             id="g4489"><g
               id="g4487"><path
                 d="M -32768,32767 H 32767 V -32768 H -32768 Z"
                 style="fill:url(#linearGradient4481);stroke:none"
                 id="path4485"
                 inkscape:connector-curvature="0" /></g></g></g></g></mask><linearGradient
       x1="0"
       y1="0"
       x2="1"
       y2="0"
       gradientUnits="userSpaceOnUse"
       gradientTransform="matrix(300.58118,-146.03737,-146.03737,-300.58118,872.65985,471.81247)"
       spreadMethod="pad"
       id="linearGradient4503"><stop
         style="stop-opacity:1;stop-color:#ffffff"
         offset="0"
         id="stop4499" /><stop
         style="stop-opacity:1;stop-color:#ffffff"
         offset="1"
         id="stop4501" /></linearGradient><clipPath
       clipPathUnits="userSpaceOnUse"
       id="clipPath4513"><path
         d="M 0,980 H 1400 V 0 H 0 Z"
         id="path4511"
         inkscape:connector-curvature="0" /></clipPath><clipPath
       clipPathUnits="userSpaceOnUse"
       id="clipPath4529"><path
         d="m 1005.32,420.072 h 262.97 V 301.038 h -262.97 z"
         id="path4527"
         inkscape:connector-curvature="0" /></clipPath><clipPath
       clipPathUnits="userSpaceOnUse"
       id="clipPath4533"><path
         d="m 1134.755,416.933 c 35.858,8.6 68.779,-2.045 87.568,-12.97 21.641,-12.58 76.926,-54.313 23.132,-93.293 -36.003,-26.092 -59.514,9.091 -116.683,9.091 -26.315,0 -98.661,-29.275 -116.415,-9.632 -17.261,19.101 -3.536,30.675 49.884,68.886 38.463,27.508 52.653,33.155 72.514,37.918"
         id="path4531"
         inkscape:connector-curvature="0" /></clipPath><linearGradient
       x1="0"
       y1="0"
       x2="1"
       y2="0"
       gradientUnits="userSpaceOnUse"
       gradientTransform="matrix(54.892738,-257.17279,-257.17279,-54.892738,1096.4664,525.63751)"
       spreadMethod="pad"
       id="linearGradient4545"><stop
         style="stop-opacity:1;stop-color:#ffffff"
         offset="0"
         id="stop4539" /><stop
         style="stop-opacity:0.10388342;stop-color:#ffffff"
         offset="0.705158"
         id="stop4541" /><stop
         style="stop-opacity:0;stop-color:#ffffff"
         offset="1"
         id="stop4543" /></linearGradient><mask
       maskUnits="userSpaceOnUse"
       x="0"
       y="0"
       width="1"
       height="1"
       id="mask4547"><g
         id="g4557"><g
           id="g4555"><g
             id="g4553"><g
               id="g4551"><path
                 d="M -32768,32767 H 32767 V -32768 H -32768 Z"
                 style="fill:url(#linearGradient4545);stroke:none"
                 id="path4549"
                 inkscape:connector-curvature="0" /></g></g></g></g></mask><linearGradient
       x1="0"
       y1="0"
       x2="1"
       y2="0"
       gradientUnits="userSpaceOnUse"
       gradientTransform="matrix(54.892738,-257.17279,-257.17279,-54.892738,1096.4664,525.63751)"
       spreadMethod="pad"
       id="linearGradient4565"><stop
         style="stop-opacity:1;stop-color:#ffffff"
         offset="0"
         id="stop4559" /><stop
         style="stop-opacity:1;stop-color:#ffffff"
         offset="0.705158"
         id="stop4561" /><stop
         style="stop-opacity:1;stop-color:#ffffff"
         offset="1"
         id="stop4563" /></linearGradient><clipPath
       clipPathUnits="userSpaceOnUse"
       id="clipPath4611"><path
         d="M 96.1019,432.011 H 442.273 V 256.659 H 96.1019 Z"
         id="path4609"
         inkscape:connector-curvature="0" /></clipPath><clipPath
       clipPathUnits="userSpaceOnUse"
       id="clipPath4627"><path
         d="M 96.1018,340.302 H 438.685 V 256.659 H 96.1018 Z"
         id="path4625"
         inkscape:connector-curvature="0" /></clipPath><clipPath
       clipPathUnits="userSpaceOnUse"
       id="clipPath4643"><path
         d="M 137.706,426.174 H 428.207 V 266.695 H 137.706 Z"
         id="path4641"
         inkscape:connector-curvature="0" /></clipPath><clipPath
       clipPathUnits="userSpaceOnUse"
       id="clipPath4647"><path
         d="m 244.88,420.787 c -5.32,-2.594 -47.701,-8.699 -54.412,-24.957 -6.698,-16.25 -0.664,-24.279 -21.394,-36.356 -20.737,-12.072 -31.7,-16.246 -30.159,-26.935 1.534,-10.69 9.165,-16.629 2.114,-27.537 -7.055,-10.912 -1.773,-16.137 5.566,-22.293 7.353,-6.153 18.007,-0.793 36.982,-9.846 18.966,-9.057 45.852,1.502 77.704,-3.088 31.873,-4.586 70.853,-5.775 89.612,8.832 18.757,14.611 28.368,13.678 50.429,29.447 22.062,15.774 27.37,21.913 26.851,36.317 -0.515,14.41 -6.529,23.314 -3.557,34.722 2.977,11.409 -38.356,13.159 -42.969,18.897 -4.621,5.738 -13.216,9.566 -25.476,14.492 -12.278,4.926 -47.157,4.346 -41.448,11.623 0.375,0.467 0.863,0.906 1.446,1.309 -9.119,0.965 -16.706,1.066 -20.417,-0.018 -9.606,-2.824 -32.288,-3.39 -32.288,-3.39 0,0 -6.165,0.589 -15.088,0.646 -0.986,-0.576 -2.102,-1.185 -3.496,-1.865"
         id="path4645"
         inkscape:connector-curvature="0" /></clipPath><linearGradient
       x1="0"
       y1="0"
       x2="1"
       y2="0"
       gradientUnits="userSpaceOnUse"
       gradientTransform="matrix(-121.94933,134.06972,395.93002,86.156006,310.42075,304.67477)"
       spreadMethod="pad"
       id="linearGradient4659"><stop
         style="stop-opacity:1;stop-color:#ffffff"
         offset="0"
         id="stop4653" /><stop
         style="stop-opacity:1;stop-color:#ffffff"
         offset="0.102399"
         id="stop4655" /><stop
         style="stop-opacity:0;stop-color:#ffffff"
         offset="1"
         id="stop4657" /></linearGradient><mask
       maskUnits="userSpaceOnUse"
       x="0"
       y="0"
       width="1"
       height="1"
       id="mask4661"><g
         id="g4671"><g
           id="g4669"><g
             id="g4667"><g
               id="g4665"><path
                 d="M -32768,32767 H 32767 V -32768 H -32768 Z"
                 style="fill:url(#linearGradient4659);stroke:none"
                 id="path4663"
                 inkscape:connector-curvature="0" /></g></g></g></g></mask><linearGradient
       x1="0"
       y1="0"
       x2="1"
       y2="0"
       gradientUnits="userSpaceOnUse"
       gradientTransform="matrix(-121.94933,134.06972,395.93002,86.156006,310.42075,304.67477)"
       spreadMethod="pad"
       id="linearGradient4679"><stop
         style="stop-opacity:1;stop-color:#ffffff"
         offset="0"
         id="stop4673" /><stop
         style="stop-opacity:1;stop-color:#ffffff"
         offset="0.102399"
         id="stop4675" /><stop
         style="stop-opacity:1;stop-color:#ffffff"
         offset="1"
         id="stop4677" /></linearGradient><clipPath
       clipPathUnits="userSpaceOnUse"
       id="clipPath4709"><path
         d="M 233.101,396.416 H 346.084 V 359.494 H 233.101 Z"
         id="path4707"
         inkscape:connector-curvature="0" /></clipPath><clipPath
       clipPathUnits="userSpaceOnUse"
       id="clipPath4725"><path
         d="m 253.961,424.163 h 44.368 v -27.4 h -44.368 z"
         id="path4723"
         inkscape:connector-curvature="0" /></clipPath><clipPath
       clipPathUnits="userSpaceOnUse"
       id="clipPath4729"><path
         d="m 298.325,411.926 c 0.218,-7.522 -9.534,-14.278 -21.784,-15.084 -12.251,-0.805 -22.357,4.632 -22.576,12.156 -0.218,7.525 9.535,14.281 21.785,15.086 12.25,0.806 22.355,-4.633 22.575,-12.158"
         id="path4727"
         inkscape:connector-curvature="0" /></clipPath><linearGradient
       x1="0"
       y1="0"
       x2="1"
       y2="0"
       gradientUnits="userSpaceOnUse"
       gradientTransform="matrix(43.996143,6.2477098,6.2477098,-43.996143,254.14665,407.3389)"
       spreadMethod="pad"
       id="linearGradient4739"><stop
         style="stop-opacity:1;stop-color:#ffffff"
         offset="0"
         id="stop4735" /><stop
         style="stop-opacity:0;stop-color:#ffffff"
         offset="1"
         id="stop4737" /></linearGradient><mask
       maskUnits="userSpaceOnUse"
       x="0"
       y="0"
       width="1"
       height="1"
       id="mask4741"><g
         id="g4751"><g
           id="g4749"><g
             id="g4747"><g
               id="g4745"><path
                 d="M -32768,32767 H 32767 V -32768 H -32768 Z"
                 style="fill:url(#linearGradient4739);stroke:none"
                 id="path4743"
                 inkscape:connector-curvature="0" /></g></g></g></g></mask><linearGradient
       x1="0"
       y1="0"
       x2="1"
       y2="0"
       gradientUnits="userSpaceOnUse"
       gradientTransform="matrix(43.996143,6.2477098,6.2477098,-43.996143,254.14665,407.3389)"
       spreadMethod="pad"
       id="linearGradient4757"><stop
         style="stop-opacity:1;stop-color:#ffffff"
         offset="0"
         id="stop4753" /><stop
         style="stop-opacity:1;stop-color:#ffffff"
         offset="1"
         id="stop4755" /></linearGradient></defs><sodipodi:namedview
     pagecolor="#ffffff"
     bordercolor="#666666"
     borderopacity="1"
     objecttolerance="10"
     gridtolerance="10"
     guidetolerance="10"
     inkscape:pageopacity="0"
     inkscape:pageshadow="2"
     inkscape:window-width="1920"
     inkscape:window-height="1027"
     id="namedview3701"
     showgrid="false"
     inkscape:zoom="0.65663261"
     inkscape:cx="933.33337"
     inkscape:cy="653.33337"
     inkscape:window-x="-8"
     inkscape:window-y="-8"
     inkscape:window-maximized="1"
     inkscape:current-layer="g3707" /><g
     id="g3707"
     inkscape:groupmode="layer"
     inkscape:label="Vector_Food"
     transform="matrix(1.3333333,0,0,-1.3333333,0,1306.6667)"><g
       id="g3933"
       transform="translate(20.559442,161.04897)"><g
         id="g3935"
         clip-path="url(#clipPath3939)"><g
           id="g3941"><g
             id="g3943" /><g
             id="g3967"
             mask="url(#mask3955)"><g
               id="g3969"><path
                 d="m 681.442,723.577 c -3.681,-3.535 15.772,-34.534 8.423,-35.855 v 0 c -3.712,-0.667 -6.708,7.432 -9.797,15.529 v 0 c -3.029,7.94 -6.148,15.879 -10.119,15.558 v 0 c -8.017,-0.645 3.507,-28.447 1.689,-29.981 v 0 c -1.819,-1.535 -9.183,14.292 -10.282,19.578 v 0 c -1.101,5.286 2.789,11.875 -0.879,7.485 v 0 c -3.669,-4.389 -1.6,-11.585 0,-14.969 v 0 c 10.216,-21.617 24.796,-45.354 42.091,-83.094 v 0 c 16.474,-35.955 25.224,-38.34 27.643,-38.999 v 0 c 2.421,-0.659 -8.359,7.039 -12.457,13.921 v 0 c -4.099,6.881 -5.359,19.737 1.9,6.316 v 0 c 7.261,-13.418 22.877,-19.796 24.858,-19.33 v 0 c 1.978,0.464 -27.058,30.991 -21.998,32.67 v 0 c 2.561,0.851 9.012,-6.486 15.302,-13.822 v 0 c 6.129,-7.148 12.106,-14.296 14.186,-13.871 v 0 c 4.212,0.861 -38.729,99.709 -45.274,111.588 v 0 c -5.898,10.708 -17.903,27.927 -23.642,27.926 v 0 c -0.628,0 -1.182,-0.207 -1.644,-0.65"
                 style="fill:url(#linearGradient3975);stroke:none"
                 id="path3977"
                 inkscape:connector-curvature="0" /></g></g></g></g></g><g
       id="g5040"
       transform="translate(799.87686,-169.55207)"><g
         transform="translate(65.044442,137.86397)"
         id="g3711"><g
           clip-path="url(#clipPath3717)"
           id="g3713"><g
             transform="translate(841.9891,726.7136)"
             id="g3719"><path
               inkscape:connector-curvature="0"
               id="path3721"
               style="fill:#c07772;fill-opacity:1;fill-rule:nonzero;stroke:none"
               d="m 0,0 c -3.968,2.559 -6.271,6.04 -3.713,10.004 2.556,3.963 7.841,5.103 11.807,2.548 C 12.059,9.996 13.199,4.709 10.641,0.746 8.083,-3.217 3.963,-2.553 0,0" /></g><g
             transform="translate(849.5829,734.8577)"
             id="g3723"><path
               inkscape:connector-curvature="0"
               id="path3725"
               style="fill:#cc9382;fill-opacity:1;fill-rule:nonzero;stroke:none"
               d="m 0,0 c -0.663,-1.568 -2.614,-0.058 -4.115,0.44 -1.507,0.5 -3.516,1.162 -2.659,2.654 0.959,1.669 2.799,1.987 3.979,1.501 C -0.813,3.782 0.663,1.567 0,0" /></g><g
             transform="translate(843.1873,730.9573)"
             id="g3727"><path
               inkscape:connector-curvature="0"
               id="path3729"
               style="fill:#cc9382;fill-opacity:1;fill-rule:nonzero;stroke:none"
               d="M 0,0 C 0.565,1.372 2.28,0.074 3.594,-0.347 4.906,-0.766 6.665,-1.324 5.934,-2.63 5.112,-4.093 3.515,-4.387 2.481,-3.975 0.745,-3.287 -0.559,-1.372 0,0" /></g><g
             transform="translate(849.6591,730.5496)"
             id="g3731"><path
               inkscape:connector-curvature="0"
               id="path3733"
               style="fill:#cc9382;fill-opacity:1;fill-rule:nonzero;stroke:none"
               d="m 0,0 c 13.057,-8.452 16.79,-25.886 8.339,-38.94 l -64.094,-99.014 c -8.452,-13.054 -25.888,-16.789 -38.941,-8.338 l -5.911,3.827 c -13.051,8.449 -16.785,25.885 -8.333,38.942 l 64.094,99.01 c 8.455,13.058 25.887,16.789 38.94,8.337 z" /></g></g></g><g
         transform="translate(65.044442,137.86397)"
         id="g3735"><g
           clip-path="url(#clipPath3741)"
           id="g3737"><g
             id="g3743"><g
               id="g3745" /><g
               mask="url(#mask3757)"
               id="g3769"><g
                 id="g3771"><path
                   inkscape:connector-curvature="0"
                   id="path3779"
                   style="fill:url(#linearGradient3777);stroke:none"
                   d="m 806.88,725.614 c -1.075,-1.851 -48.665,-79.983 -48.665,-79.983 v 0 c 0,0 3.815,-28.959 5.592,-36.11 v 0 c 1.774,-7.149 11.283,-4.075 39.443,36.11 v 0 c 28.157,40.184 42.262,80.671 39.183,82.221 v 0 c -1.503,0.756 -7.795,-7.775 -14.247,-16.305 v 0 c -6.767,-8.948 -13.709,-17.895 -15.479,-16.124 v 0 c -1.649,1.649 14.3,25.081 17.82,32.562 v 0 c 3.52,7.478 -5.719,3.585 -11.88,-3.67 v 0 c -2.206,-2.601 -17.16,-20.532 -12.758,-8.388 v 0 c 4.397,12.143 15.211,18.723 14.077,19.644 v 0 c -0.091,0.074 -0.23,0.109 -0.411,0.109 v 0 c -2.063,0 -9.543,-4.654 -12.675,-10.066" /></g></g></g></g></g><g
         transform="translate(65.044442,137.86397)"
         id="g3781"><g
           clip-path="url(#clipPath3787)"
           id="g3783"><g
             transform="translate(755.2548,593.8151)"
             id="g3789"><path
               inkscape:connector-curvature="0"
               id="path3791"
               style="fill:#c07772;fill-opacity:1;fill-rule:nonzero;stroke:none"
               d="m 0,0 c 0.437,-0.509 -1.077,-2.33 -2.628,0.41 -1.218,2.152 -9.54,12.602 2.396,33.832 0,0 -9.815,-22.611 0.232,-34.242" /></g><g
             transform="translate(770.2156,585.2209)"
             id="g3793"><path
               inkscape:connector-curvature="0"
               id="path3795"
               style="fill:#c07772;fill-opacity:1;fill-rule:nonzero;stroke:none"
               d="M 0,0 C -0.668,0.058 -1.252,-2.241 1.875,-1.887 4.336,-1.609 17.68,-2.205 27.854,19.923 27.854,19.923 15.313,-1.303 0,0" /></g><g
             transform="translate(766.9432,587.4163)"
             id="g3797"><path
               inkscape:connector-curvature="0"
               id="path3799"
               style="fill:#c07772;fill-opacity:1;fill-rule:nonzero;stroke:none"
               d="M 0,0 C -1.06,-0.948 -3.124,-0.547 -1.587,1.107 4.703,7.874 21.185,32.408 21.185,32.408 21.185,32.408 7.972,7.16 0,0" /></g><g
             transform="translate(758.2753,591.7161)"
             id="g3801"><path
               inkscape:connector-curvature="0"
               id="path3803"
               style="fill:#c07772;fill-opacity:1;fill-rule:nonzero;stroke:none"
               d="m 0,0 c -0.017,-1.42 1.646,-2.71 1.873,-0.46 0.95,9.186 8.551,37.75 8.551,37.75 C 10.424,37.29 0.132,10.715 0,0" /></g><g
             transform="translate(774.4969,583.5516)"
             id="g3805"><path
               inkscape:connector-curvature="0"
               id="path3807"
               style="fill:#c07772;fill-opacity:1;fill-rule:nonzero;stroke:none"
               d="m 0,0 c 0,0 -3.749,0.298 -3.057,-2.033 l -2.972,-0.387 -11.957,7.222 -5.342,4.36 c 0,0 2.292,-1.386 1.697,1.127 l 1.551,1.032 c 0,0 2.898,-4.817 3.914,-1.923 l 2.062,0.168 c 0,0 -0.611,-8.648 5.748,-3.917 l 1.944,-0.671 c 0,0 -3.18,-3.518 4.26,-3.395 z" /></g><g
             transform="translate(749.0526,588.0848)"
             id="g3809"><path
               inkscape:connector-curvature="0"
               id="path3811"
               style="fill:#c07772;fill-opacity:1;fill-rule:nonzero;stroke:none"
               d="m 0,0 5.91,-3.827 c 3.814,-2.467 7.998,-3.867 12.225,-4.325 13.398,7.258 18.64,23.903 11.662,37.551 L 10.244,67.639 -8.334,38.941 C -16.785,25.885 -13.052,8.449 0,0" /></g><g
             transform="translate(676.7781,727.2756)"
             id="g3813"><path
               inkscape:connector-curvature="0"
               id="path3815"
               style="fill:#cc9382;fill-opacity:1;fill-rule:nonzero;stroke:none"
               d="m 0,0 c 13.135,-8.326 17.032,-25.725 8.705,-38.858 l -63.15,-99.619 c -8.326,-13.136 -25.722,-17.032 -38.857,-8.706 l -5.945,3.77 c -13.138,8.326 -17.034,25.725 -8.708,38.858 l 63.151,99.619 c 8.327,13.134 25.726,17.032 38.859,8.706 z" /></g><g
             transform="translate(678.2899,724.8566)"
             id="g3817"><path
               inkscape:connector-curvature="0"
               id="path3819"
               style="fill:#c07772;fill-opacity:1;fill-rule:nonzero;stroke:none"
               d="M 0,0 V 0.002 C -0.22,0.736 -0.151,1.117 0.033,1.327 -0.473,1.7 -0.973,2.075 -1.512,2.419 l -5.945,3.77 c -3.677,2.333 -7.693,3.672 -11.747,4.152 -0.126,-0.522 -0.572,-0.857 -1.108,-1.043 -3.394,-0.44 -15.776,-1.782 -24.151,-23.22 0,0 11.195,21.757 26.473,21.514 4.843,-0.216 2.484,-3.178 2.484,-3.178 l 0.004,-0.002 c -7.525,-8.789 -18.18,-32.41 -18.18,-32.41 0,0 14.483,24.548 20.573,32.168 5.589,4.3 5.556,-3.76 5.554,-3.874 -0.966,-10.737 -6.199,-36.325 -6.199,-36.325 0,0 8.097,25.19 8.244,36.602 h 10e-4 c 0.542,1.882 2.027,0.672 3.032,-0.447 0.002,-0.096 0.032,-0.178 0.092,-0.239 10.707,-11.021 2.23,-34.167 2.23,-34.167 10.674,21.888 1.759,31.834 0.414,33.915 C 0.173,-0.229 0.086,-0.113 0,0" /></g><g
             transform="translate(585.41,588.2297)"
             id="g3821"><path
               inkscape:connector-curvature="0"
               id="path3823"
               style="fill:#c07772;fill-opacity:1;fill-rule:nonzero;stroke:none"
               d="m 0,0 -7.736,1.228 v 0.516 l -4.473,0.525 c 0.362,-3.057 -1.938,-1.073 -2.4,-0.647 1.861,-2.285 4.101,-4.324 6.73,-5.989 l 5.945,-3.77 c 1.906,-1.209 3.911,-2.131 5.958,-2.833 -1.24,3.186 4.212,1.128 4.212,1.128 L 0.82,-1.63 Z" /></g><g
             transform="translate(676.7781,727.2756)"
             id="g3825"><path
               inkscape:connector-curvature="0"
               id="path3827"
               style="fill:#c07772;fill-opacity:1;fill-rule:nonzero;stroke:none"
               d="m 0,0 -5.945,3.77 c -1.739,1.102 -3.554,1.975 -5.412,2.655 -13.14,-7.438 -17.09,-26.236 -10.164,-39.784 L -6.467,-62.796 8.705,-38.858 C 17.032,-25.725 13.135,-8.326 0,0" /></g><g
             transform="translate(681.4423,735.4235)"
             id="g3829"><path
               inkscape:connector-curvature="0"
               id="path3831"
               style="fill:#c07772;fill-opacity:1;fill-rule:nonzero;stroke:none"
               d="m 0,0 c 0,0 -10.564,8.452 -16.022,-1.723 l 1.843,-4.456 12.425,-3.588 z" /></g><g
             transform="translate(767.1873,579.9324)"
             id="g3833"><path
               inkscape:connector-curvature="0"
               id="path3835"
               style="fill:#c07772;fill-opacity:1;fill-rule:nonzero;stroke:none"
               d="m 0,0 c 0,0 -9.255,-14.083 -22.895,2.415 -13.639,16.5 1.98,19.14 1.98,19.14 l 6.671,2.199 10.706,-1.1 z" /></g><g
             transform="translate(752.118,577.7908)"
             id="g3837"><path
               inkscape:connector-curvature="0"
               id="path3839"
               style="fill:#cc9382;fill-opacity:1;fill-rule:nonzero;stroke:none"
               d="m 0,0 c -13.846,-7.083 -30.812,-1.602 -37.89,12.247 l -53.701,105.014 c -7.079,13.847 -1.596,30.814 12.251,37.894 l 6.27,3.203 c 13.846,7.082 30.808,1.596 37.891,-12.25 L 18.518,41.091 C 25.6,27.245 20.113,10.281 6.271,3.202 Z" /></g><g
             transform="translate(675.7919,736.7518)"
             id="g3841"><path
               inkscape:connector-curvature="0"
               id="path3843"
               style="fill:#cc9382;fill-opacity:1;fill-rule:nonzero;stroke:none"
               d="m 0,0 c 0.935,-1.028 -2.797,-1.838 -4.453,-2.593 -1.656,-0.751 -3.302,-1.815 -3.877,-0.551 -0.576,1.268 0.889,2.829 2.564,3.531 C -3.491,1.34 -0.935,1.03 0,0" /></g><g
             transform="translate(753.908,576.949)"
             id="g3845"><path
               inkscape:connector-curvature="0"
               id="path3847"
               style="fill:#cc9382;fill-opacity:1;fill-rule:nonzero;stroke:none"
               d="M 0,0 C -0.799,1.139 3.007,1.475 4.746,2.016 6.483,2.558 8.248,3.409 8.659,2.079 9.075,0.75 7.427,-0.614 5.675,-1.103 3.298,-1.766 0.803,-1.141 0,0" /></g><g
             transform="translate(684.8671,734.6575)"
             id="g3849"><path
               inkscape:connector-curvature="0"
               id="path3851"
               style="fill:#c07772;fill-opacity:1;fill-rule:nonzero;stroke:none"
               d="M 0,0 C -0.67,-0.087 -1.347,2.188 1.794,1.96 4.262,1.783 17.569,2.928 28.642,-18.766 28.642,-18.766 15.247,1.926 0,0" /></g><g
             transform="translate(669.4246,726.9534)"
             id="g3853"><path
               inkscape:connector-curvature="0"
               id="path3855"
               style="fill:#c07772;fill-opacity:1;fill-rule:nonzero;stroke:none"
               d="M 0,0 C 0.419,0.526 -1.171,2.285 -2.608,-0.515 -3.739,-2.718 -11.622,-13.499 1.175,-34.222 1.175,-34.222 -9.56,-12.03 0,0" /></g><g
             transform="translate(673.0662,728.465)"
             id="g3857"><path
               inkscape:connector-curvature="0"
               id="path3859"
               style="fill:#c07772;fill-opacity:1;fill-rule:nonzero;stroke:none"
               d="M 0,0 C -0.204,1.405 1.275,2.902 1.8,0.71 3.952,-8.277 15.262,-35.584 15.262,-35.584 15.262,-35.584 1.548,-10.604 0,0" /></g><g
             transform="translate(681.4442,733.304)"
             id="g3861"><path
               inkscape:connector-curvature="0"
               id="path3863"
               style="fill:#c07772;fill-opacity:1;fill-rule:nonzero;stroke:none"
               d="M 0,0 C -1.169,0.798 -3.163,0.128 -1.421,-1.307 5.706,-7.183 25.283,-29.328 25.283,-29.328 25.283,-29.328 8.85,-6.043 0,0" /></g><g
             transform="translate(665.6639,724.3143)"
             id="g3865"><path
               inkscape:connector-curvature="0"
               id="path3867"
               style="fill:#c07772;fill-opacity:1;fill-rule:nonzero;stroke:none"
               d="m 0,0 c 0,0 2.328,2.958 0,3.671 l 1.326,2.69 12.633,5.958 6.587,2.036 c 0,0 -2.425,-1.142 0,-2.04 v -1.861 c 0,0 -5.614,0.253 -3.766,-2.194 L 15.778,6.45 c 0,0 -6.869,5.293 -6.447,-2.618 L 7.696,2.582 c 0,0 -1.169,4.594 -5.183,-1.665 z" /></g><g
             transform="translate(850.8427,726.7941)"
             id="g3869"><path
               inkscape:connector-curvature="0"
               id="path3871"
               style="fill:#c07772;fill-opacity:1;fill-rule:nonzero;stroke:none"
               d="m 0,0 c -0.432,0.514 1.102,2.319 2.623,-0.435 1.196,-2.168 9.403,-12.706 -2.757,-33.805 0,0 10.058,22.502 0.134,34.24" /></g><g
             transform="translate(835.9744,735.5491)"
             id="g3873"><path
               inkscape:connector-curvature="0"
               id="path3875"
               style="fill:#c07772;fill-opacity:1;fill-rule:nonzero;stroke:none"
               d="m 0,0 c 0.671,-0.065 1.277,2.227 -1.854,1.907 -2.461,-0.253 -15.8,0.489 -26.208,-21.529 0,0 12.765,21.086 28.062,19.622" /></g><g
             transform="translate(839.2244,733.3171)"
             id="g3877"><path
               inkscape:connector-curvature="0"
               id="path3879"
               style="fill:#c07772;fill-opacity:1;fill-rule:nonzero;stroke:none"
               d="M 0,0 C 1.067,0.939 3.129,0.513 1.576,-1.125 -4.788,-7.821 -21.53,-32.177 -21.53,-32.177 -21.53,-32.177 -8.049,-7.073 0,0" /></g><g
             transform="translate(847.8475,728.9246)"
             id="g3881"><path
               inkscape:connector-curvature="0"
               id="path3883"
               style="fill:#c07772;fill-opacity:1;fill-rule:nonzero;stroke:none"
               d="m 0,0 c 0.03,1.42 -1.615,2.728 -1.87,0.483 -1.047,-9.176 -8.955,-37.658 -8.955,-37.658 0,0 10.575,26.464 10.825,37.175" /></g><g
             transform="translate(831.7137,737.2643)"
             id="g3885"><path
               inkscape:connector-curvature="0"
               id="path3887"
               style="fill:#c07772;fill-opacity:1;fill-rule:nonzero;stroke:none"
               d="m 0,0 c 0,0 3.745,-0.339 3.077,1.998 l 2.976,0.358 11.88,-7.351 5.296,-4.417 c 0,0 -2.28,1.412 -1.711,-1.11 l -1.563,-1.013 c 0,0 -2.843,4.847 -3.892,1.964 l -2.061,-0.147 c 0,0 0.698,8.643 -5.709,3.981 l -1.935,0.691 c 0,0 3.215,3.483 -4.224,3.442 z" /></g><g
             transform="translate(764.7039,586.7181)"
             id="g3889"><path
               inkscape:connector-curvature="0"
               id="path3891"
               style="fill:#c07772;fill-opacity:1;fill-rule:nonzero;stroke:none"
               d="m 0,0 c 1.686,2.973 8.053,13.685 -4.068,33.259 0,0 10.685,-22.028 1.304,-34.096 C -5.838,-4.57 -6.786,-0.91 -6.786,-0.91 l -0.006,-0.003 c -2.508,11.299 -15.007,34.001 -15.007,34.001 0,0 10.937,-26.316 13.376,-35.765 0.084,-7.107 -6.44,-2.111 -6.44,-2.111 -8.006,7.223 -25.322,26.756 -25.322,26.756 0,0 15.287,-21.596 24.324,-28.564 L -15.862,-6.6 c 1.18,-1.561 -0.676,-2.023 -2.18,-2.152 -0.074,0.054 -0.158,0.078 -0.241,0.067 -15.244,-1.948 -28.667,18.73 -28.667,18.73 11.098,-21.68 24.403,-20.52 26.878,-20.693 0.173,-0.013 0.296,0.008 0.447,0.008 v -0.021 c 0.459,-0.17 0.746,-0.347 0.908,-0.527 2.082,0.51 4.139,1.242 6.131,2.261 l 6.271,3.201 c 2.367,1.21 4.47,2.729 6.33,4.454 C -0.163,-0.893 -0.139,-0.444 0,0" /></g><g
             transform="translate(584.6542,589.0765)"
             id="g3893"><path
               inkscape:connector-curvature="0"
               id="path3895"
               style="fill:#c07772;fill-opacity:1;fill-rule:nonzero;stroke:none"
               d="m 0,0 c 3.967,-2.556 6.269,-6.039 3.714,-10.004 -2.556,-3.961 -7.843,-5.104 -11.807,-2.546 -3.966,2.556 -5.105,7.843 -2.548,11.806 C -8.085,3.22 -3.964,2.555 0,0" /></g><g
             transform="translate(574.8671,583.9543)"
             id="g3897"><path
               inkscape:connector-curvature="0"
               id="path3899"
               style="fill:#cc9382;fill-opacity:1;fill-rule:nonzero;stroke:none"
               d="m 0,0 c 1.021,2.407 4.009,0.085 6.316,-0.679 2.306,-0.765 5.39,-1.779 4.077,-4.068 C 8.923,-7.307 6.098,-7.795 4.289,-7.05 1.243,-5.803 -1.019,-2.403 0,0" /></g><g
             transform="translate(583.4529,584.8348)"
             id="g3901"><path
               inkscape:connector-curvature="0"
               id="path3903"
               style="fill:#cc9382;fill-opacity:1;fill-rule:nonzero;stroke:none"
               d="m 0,0 c -0.564,-1.372 -2.277,-0.076 -3.593,0.348 -1.309,0.417 -3.07,0.977 -2.338,2.281 0.821,1.463 2.419,1.757 3.454,1.346 C -0.742,3.288 0.562,1.371 0,0" /></g><g
             transform="translate(579.4901,595.8226)"
             id="g3905"><path
               inkscape:connector-curvature="0"
               id="path3907"
               style="fill:#c07772;fill-opacity:1;fill-rule:nonzero;stroke:none"
               d="m 0,0 c 0.403,-0.54 -1.231,-2.255 -2.593,0.584 -1.072,2.23 -8.669,13.218 4.67,33.593 C 2.077,34.177 -9.239,12.279 0,0" /></g><g
             transform="translate(576.8251,590.5906)"
             id="g3909"><path
               inkscape:connector-curvature="0"
               id="path3911"
               style="fill:#c07772;fill-opacity:1;fill-rule:nonzero;stroke:none"
               d="m 0,0 c 0.569,-0.355 -0.059,-1.962 -2.888,-0.579 -2.192,1.072 -14.435,12.575 -2,33.121 0,0 -11.261,-22.526 4.888,-32.542" /></g><g
             transform="translate(593.8387,586.2366)"
             id="g3913"><path
               inkscape:connector-curvature="0"
               id="path3915"
               style="fill:#c07772;fill-opacity:1;fill-rule:nonzero;stroke:none"
               d="M 0,0 C -0.665,0.104 -1.4,-2.151 1.744,-2.007 4.215,-1.897 17.487,-3.393 29.13,18 29.13,18 15.19,-2.33 0,0" /></g><g
             transform="translate(589.0652,582.1276)"
             id="g3917"><path
               inkscape:connector-curvature="0"
               id="path3919"
               style="fill:#c07772;fill-opacity:1;fill-rule:nonzero;stroke:none"
               d="M 0,0 C -0.59,0.32 -1.726,-0.269 0.868,-2.052 5.343,-5.133 19.348,-8.432 33.2,9.648 33.2,9.648 16.375,-8.872 0,0" /></g><g
             transform="translate(590.7186,588.6481)"
             id="g3921"><path
               inkscape:connector-curvature="0"
               id="path3923"
               style="fill:#c07772;fill-opacity:1;fill-rule:nonzero;stroke:none"
               d="M 0,0 C -1.118,-0.875 -3.149,-0.334 -1.507,1.212 5.224,7.54 23.321,30.907 23.321,30.907 23.321,30.907 8.438,6.605 0,0" /></g><g
             transform="translate(582.3602,593.5231)"
             id="g3925"><path
               inkscape:connector-curvature="0"
               id="path3927"
               style="fill:#c07772;fill-opacity:1;fill-rule:nonzero;stroke:none"
               d="M 0,0 C -0.111,-1.415 1.46,-2.816 1.841,-0.587 3.408,8.516 12.916,36.502 12.916,36.502 12.916,36.502 0.856,10.681 0,0" /></g><g
             transform="translate(576.3329,597.4764)"
             id="g3929"><path
               inkscape:connector-curvature="0"
               id="path3931"
               style="fill:#c07772;fill-opacity:1;fill-rule:nonzero;stroke:none"
               d="m 0,0 c 0,0 2.259,-5.869 -2.556,-4.559 l 0.841,-1.768 1.529,-1.176 h 2.421 l 3.786,-0.991 h 0.615 l 6.037,-8.18 2.688,-1.021 2.811,0.346 c 0,0 -5.084,3.328 2.102,4.095 l 0.437,1.848 c 0,0 -7.44,0.304 -2.522,6.211 l -1.563,1.498 c 0,0 -9.394,-8.224 -8.115,2.196 l -2.098,0.379 c 0,0 -0.176,-3.15 -1.701,-2.126 -1.526,1.025 -2.472,2.951 -2.472,2.951 z" /></g></g></g><g
         transform="translate(65.044442,137.86397)"
         id="g3979"><g
           clip-path="url(#clipPath3985)"
           id="g3981"><g
             id="g3987"><g
               id="g3989" /><g
               mask="url(#mask4003)"
               id="g4015"><g
                 id="g4017"><path
                   inkscape:connector-curvature="0"
                   id="path4027"
                   style="fill:url(#linearGradient4025);stroke:none"
                   d="m 640.457,727.985 c -4.248,-1.929 -13.304,-15.972 -13.304,-15.972 v 0 c 0,0 -52.425,-79.977 -53.376,-85.777 v 0 c -1.063,-6.467 7.01,6.001 8.577,7.998 v 0 c 1.233,1.571 4.206,3.157 -1.31,-9.938 v 0 c -5.764,-13.695 -0.642,-25.449 -0.575,-17.998 v 0 c 0.067,7.448 12.911,27.529 16.575,26.207 v 0 c 3.664,-1.318 -8.725,-24.078 -8.74,-35.028 v 0 c -0.016,-10.951 13.657,9.73 23.336,22.078 v 0 c 9.679,12.349 26.849,68.54 30.578,75.136 v 0 c 0.828,1.468 8.744,19.99 11.782,25.244 v 0 c 6.366,11.015 -1.056,7.458 -6.504,4.293 v 0 c -12.649,-7.356 -21.779,-30.786 -16.058,-13.871 v 0 c 4.758,14.071 10.353,18.068 10.01,18.068 v 0 c -0.069,0 -0.381,-0.164 -0.991,-0.44" /></g></g></g></g></g></g><g
       id="g5499"
       transform="translate(959.8525,-295.33963)"><g
         transform="translate(706.4178,430.9645)"
         id="g4273"><path
           inkscape:connector-curvature="0"
           id="path4275"
           style="fill:#cd792b;fill-opacity:1;fill-rule:nonzero;stroke:none"
           d="m 0,0 c -81.631,0 -147.804,-46.016 -147.804,-102.779 v -37.828 c 0,-18.041 23.358,-71.262 148.003,-71.262 127.742,0 147.6,53.221 147.6,71.262 v 37.828 C 147.799,-46.016 81.627,0 0,0" /></g><g
         id="g4277"><g
           id="g4279" /><g
           mask="url(#mask4289)"
           id="g4305"><g
             id="g4307" /><g
             id="g4339"><g
               style="opacity:0.5"
               id="g4337"
               clip-path="url(#clipPath4311)"><g
                 id="g4315"
                 transform="translate(726.0565,397.6971)"><path
                   inkscape:connector-curvature="0"
                   id="path4313"
                   style="fill:#e8bb6e;fill-opacity:1;fill-rule:nonzero;stroke:none"
                   d="m 0,0 c -5.087,-0.881 -10.235,-2.008 -15.409,-3.375 -0.123,-0.033 -0.244,-0.061 -0.368,-0.088 0.96,-0.08 1.909,-0.31 2.809,-0.695 4.249,-1.799 8.518,-3.697 12.812,-5.696 -1.019,1.655 -1.506,3.625 -1.322,5.643 C -1.336,-2.674 -0.815,-1.234 0,0" /></g><g
                 id="g4319"
                 transform="translate(708.5223,412.7107)"><path
                   inkscape:connector-curvature="0"
                   id="path4317"
                   style="fill:#e8bb6e;fill-opacity:1;fill-rule:nonzero;stroke:none"
                   d="m 0,0 c 19.32,4.84 38.137,6.555 56.064,5.156 -16.416,5.26 -33.056,7.94 -49.486,7.94 -21.754,0 -38.5,-0.528 -59.915,-6.121 C -58.071,5.736 -62.741,4.402 -67.369,2.885 -44.422,6.744 -22.087,6.576 0,0" /></g><g
                 id="g4323"
                 transform="translate(706.7108,393.8279)"><path
                   inkscape:connector-curvature="0"
                   id="path4321"
                   style="fill:#e8bb6e;fill-opacity:1;fill-rule:nonzero;stroke:none"
                   d="M 0,0 C 0.271,0.086 0.548,0.16 0.827,0.223 0.15,0.277 -0.518,0.41 -1.169,0.615 c -4.454,1.408 -8.95,2.588 -13.48,3.535 0.303,-0.869 0.481,-1.798 0.507,-2.755 0.079,-2.702 -1.035,-5.235 -2.938,-6.998 C -11.523,-3.738 -5.827,-1.871 0,0" /></g><g
                 id="g4327"
                 transform="translate(576.7841,336.5232)"><path
                   inkscape:connector-curvature="0"
                   id="path4325"
                   style="fill:#e8bb6e;fill-opacity:1;fill-rule:nonzero;stroke:none"
                   d="m 0,0 c 2.063,2.242 17.648,14.912 17.648,14.912 8.032,6.942 30.921,25.594 62.226,41.488 -17.735,4.002 -27.563,3.913 -27.697,3.913 -0.462,-0.008 -0.911,0.044 -1.359,0.103 v -0.018 c 0,0 -21.062,1.866 -34.04,-8.3 C 5.948,42.301 -3.01,29.955 -7.752,16.291 -10.286,8.986 -10.205,3.51 -7.896,-0.396 -5.524,-1.914 -1.43,-1.551 0,0" /></g><g
                 id="g4331"
                 transform="translate(838.1658,360.0096)"><path
                   inkscape:connector-curvature="0"
                   id="path4329"
                   style="fill:#e8bb6e;fill-opacity:1;fill-rule:nonzero;stroke:none"
                   d="m 0,0 c -3.776,11.24 -14.544,24.873 -24.763,33.353 -14.426,6.557 -29.731,4.012 -29.731,4.012 -0.144,-0.037 -10.73,-2.801 -27.242,-7.564 32.176,-21.621 50.858,-47.909 54.116,-52.707 0.384,-0.479 0.698,-1.012 0.981,-1.563 9.526,-12.902 16.886,-8.355 18.613,-6.984 2.47,2.101 4.773,4.318 6.008,7.805 C -0.214,-18.566 1.673,-4.99 0,0" /></g><g
                 id="g4335"
                 transform="translate(794.6024,309.3611)"><path
                   inkscape:connector-curvature="0"
                   id="path4333"
                   style="fill:#e8bb6e;fill-opacity:1;fill-rule:nonzero;stroke:none"
                   d="m 0,0 c 17.524,4.266 -2.076,18.426 -2.316,18.6 -28.285,19.724 -56.239,35.634 -83.231,47.357 -39.843,-12.9 -73.184,-25.568 -99.356,-37.736 -13.505,-9.037 -4.018,-18.268 -3.995,-18.291 4.682,-3.498 8.422,-5.295 15.722,-4.285 -0.138,14.449 12.316,16.689 19.715,6.841 5.996,-7.98 9.28,-33.086 21.87,-30.064 1.877,5.529 5.404,17.971 10.807,20.926 3.516,1.923 6.893,0.855 10.643,0.072 1.781,-0.371 3.194,-4.426 5.053,-4.496 3.38,-0.123 4.18,3.139 6.874,3.476 7.498,0.942 15.664,-3.097 23.119,-1.949 11.045,1.697 14.984,8.057 25.94,-0.713 7.589,-6.082 10.516,-11.174 20.27,-12.621 4.036,-0.594 11.114,-0.826 14.289,1.16 3.438,2.159 3.512,9.422 6.969,11.272 C -5.013,0.947 -2.469,0.82 0.001,0 Z" /></g></g></g></g></g><g
         transform="translate(706.6171,228.5388)"
         id="g4341"><path
           inkscape:connector-curvature="0"
           id="path4343"
           style="fill:#a6621f;fill-opacity:1;fill-rule:nonzero;stroke:none"
           d="m 0,0 c -124.646,0 -148.003,53.219 -148.003,71.264 v -9.446 c 0,-18.041 23.357,-71.261 148.003,-71.261 127.742,0 147.6,53.22 147.6,71.261 v 9.446 C 147.6,53.219 127.742,0 0,0" /></g><g
         transform="translate(709.5125,385.0974)"
         id="g4345"><path
           inkscape:connector-curvature="0"
           id="path4347"
           style="fill:#f3c473;fill-opacity:1;fill-rule:nonzero;stroke:none"
           d="m 0,0 c 26.083,-11.047 57.729,-27.924 93.833,-53.721 0,0 -24.851,38.084 -69.636,61.27 28.053,8.504 47.655,13.601 47.655,13.601 -25.129,5.262 -50.05,3.018 -73.06,-3.062 -22.901,7.238 -49.546,9.724 -79.526,2.814 0,0 19.725,0.471 54.628,-11.043 -49.912,-19.734 -85.84,-52.994 -85.84,-52.994 C -78.217,-26.625 -35.664,-11.453 0,0" /></g><g
         transform="translate(687.6434,377.8727)"
         id="g4349"><path
           inkscape:connector-curvature="0"
           id="path4351"
           style="fill:#efa76b;fill-opacity:1;fill-rule:nonzero;stroke:none"
           d="M 0,0 -4.237,17.084 C -54.148,-2.65 -90.077,-35.91 -90.077,-35.91 -63.022,-22.668 -30.299,-10.293 0,0" /></g><g
         transform="translate(803.3455,331.3767)"
         id="g4353"><path
           inkscape:connector-curvature="0"
           id="path4355"
           style="fill:#efa76b;fill-opacity:1;fill-rule:nonzero;stroke:none"
           d="M 0,0 C 0,0 -24.851,38.084 -69.636,61.27 L -73.979,44.648 C -52.204,33.996 -27.39,19.57 0,0" /></g></g><g
       id="g5583"
       transform="translate(508.2751,-248.99769)"><g
         transform="translate(1291.1122,720.2537)"
         id="g4357"><path
           inkscape:connector-curvature="0"
           id="path4359"
           style="fill:#cd792b;fill-opacity:1;fill-rule:nonzero;stroke:none"
           d="m 0,0 c 11.44,-34.115 -66.243,-76.911 -168.296,-111.134 -102.056,-34.222 -189.834,-46.91 -201.273,-12.795 -11.439,34.115 67.817,72.216 169.871,106.438 C -97.644,16.729 -11.44,34.113 0,0" /></g><g
         transform="translate(1122.8163,617.4089)"
         id="g4361"><path
           inkscape:connector-curvature="0"
           id="path4363"
           style="fill:#a6621f;fill-opacity:1;fill-rule:nonzero;stroke:none"
           d="m 0,0 c -102.056,-34.222 -189.834,-46.911 -201.273,-12.793 -0.286,0.85 -0.5,1.706 -0.672,2.563 -0.718,-3.656 -0.527,-7.277 0.672,-10.854 C -189.834,-55.199 -102.056,-42.511 0,-8.289 99.328,25.018 175.556,66.449 169.011,100.09 163.101,68.103 91.312,30.62 0,0" /></g><g
         transform="translate(982.5096,653.3162)"
         id="g4365"><path
           inkscape:connector-curvature="0"
           id="path4367"
           style="fill:#f3c473;fill-opacity:1;fill-rule:nonzero;stroke:none"
           d="M 0,0 C 0,0 30.26,-0.633 49.448,-35.705 49.448,-35.705 48.69,17.217 0,0" /></g><g
         transform="translate(1200.5087,728.6003)"
         id="g4369"><path
           inkscape:connector-curvature="0"
           id="path4371"
           style="fill:#f3c473;fill-opacity:1;fill-rule:nonzero;stroke:none"
           d="M 0,0 C 0,0 30.261,-0.636 49.448,-35.707 49.448,-35.707 48.69,17.217 0,0" /></g><g
         transform="translate(1034.7059,680.3641)"
         id="g4373"><path
           inkscape:connector-curvature="0"
           id="path4375"
           style="fill:#f3c473;fill-opacity:1;fill-rule:nonzero;stroke:none"
           d="m 0,0 c 0,0 41.57,-1.38 75.492,-47.768 0,0 9.026,74.495 -75.492,47.768" /></g><g
         transform="translate(1107.6317,706.6794)"
         id="g4377"><path
           inkscape:connector-curvature="0"
           id="path4379"
           style="fill:#f3c473;fill-opacity:1;fill-rule:nonzero;stroke:none"
           d="m 0,0 c 0,0 41.567,-1.381 75.489,-47.769 0,0 9.028,74.497 -75.489,47.769" /></g><g
         id="g4381"><g
           id="g4383" /><g
           id="g4427"><g
             style="opacity:0.5"
             id="g4425"
             clip-path="url(#clipPath4387)"><g
               id="g4391"
               transform="translate(1005.8387,638.4963)"><path
                 inkscape:connector-curvature="0"
                 id="path4389"
                 style="fill:#e8bb6e;fill-opacity:1;fill-rule:nonzero;stroke:none"
                 d="m 0,0 c 4.807,-2.686 12.825,-8.578 5.628,-13.695 -4.905,-3.49 -11.284,1.875 -15.829,3.491 -5.903,2.096 -8.311,0.22 -14.666,-1.79 -3.283,-1.037 -4.495,-0.924 -7.621,-2.495 -2.597,-1.307 -4.443,-3.553 -6.977,-4.377 -4.24,-1.379 -14.384,-1.748 -17.694,1.33 -6.529,6.072 1.052,8.165 4.138,12.131 1.464,1.88 0.563,5.148 2.492,7.029 3.492,3.401 16.933,8.044 21.824,8.071 C -18.898,9.753 -8.313,4.646 0,0" /></g><g
               id="g4395"
               transform="translate(999.1727,621.116)"><path
                 inkscape:connector-curvature="0"
                 id="path4393"
                 style="fill:#e8bb6e;fill-opacity:1;fill-rule:nonzero;stroke:none"
                 d="m 0,0 c 0.059,-5.009 -7.738,-5.164 -11.474,-4.797 -2.375,0.231 -8.473,-0.747 -10.092,1.489 -2.039,2.812 4.248,4.125 6.433,5.091 C -10.869,3.675 -0.093,8.553 0,0" /></g><g
               id="g4399"
               transform="translate(1056.6161,639.8752)"><path
                 inkscape:connector-curvature="0"
                 id="path4397"
                 style="fill:#e8bb6e;fill-opacity:1;fill-rule:nonzero;stroke:none"
                 d="m 0,0 c -4.312,-2.631 -10.275,-10.506 -16.164,-9.216 -7.484,1.641 -4.353,13.928 -7.735,19.188 -3.463,5.386 -11.2,7.014 -16.56,9.613 -0.502,8.337 2.781,10.569 10.939,12.218 5.296,1.07 11.863,1.274 17.192,0.715 C -4.737,31.723 5.44,30.069 11.444,24.993 20.496,17.344 7.116,4.34 0,0" /></g><g
               id="g4403"
               transform="translate(1068.7665,642.7087)"><path
                 inkscape:connector-curvature="0"
                 id="path4401"
                 style="fill:#e8bb6e;fill-opacity:1;fill-rule:nonzero;stroke:none"
                 d="M 0,0 C 2.348,2.813 3.563,8.529 6.911,10.377 11.924,13.14 17.892,9.789 20.236,5.49 23.654,-0.766 18.603,-4.788 13.325,-7.565 10.051,-9.289 6.574,-10.09 2.97,-10.779 0.309,-11.288 -4.271,-13.599 -6.817,-12.756 -15.779,-9.782 -1.896,-2.271 0,0" /></g><g
               id="g4407"
               transform="translate(1116.2411,647.9202)"><path
                 inkscape:connector-curvature="0"
                 id="path4405"
                 style="fill:#e8bb6e;fill-opacity:1;fill-rule:nonzero;stroke:none"
                 d="m 0,0 c -1.766,4.302 -1.913,8.958 -3.899,13.137 -1.667,3.501 -3.42,7.073 -5.334,10.521 -4.152,7.482 -8.692,9.954 -15.685,13.871 -1.928,1.078 -8.71,3.404 -8.941,6.117 -0.286,3.332 6.267,4.029 8.694,4.155 7.841,0.404 15.58,-4.422 22.875,-6.928 3.304,-1.136 6.397,-2.024 9.66,-3.274 3.654,-1.402 6.244,-4.086 9.479,-6.394 3.586,-2.559 7.998,-4.644 12.118,-6.28 3.497,-1.389 7.015,-1.218 10.434,-2.383 2.446,-0.835 6.275,-3.313 5.906,-6.407 C 44.873,12.483 40.708,12.862 38.074,12.009 33.043,10.375 28.842,6.038 24.907,2.696 17.531,-3.569 5.628,-13.709 0,0" /></g><g
               id="g4411"
               transform="translate(1137.2323,683.0447)"><path
                 inkscape:connector-curvature="0"
                 id="path4409"
                 style="fill:#e8bb6e;fill-opacity:1;fill-rule:nonzero;stroke:none"
                 d="m 0,0 c -3.551,1.588 -7.155,2.783 -10.585,4.625 -3.149,1.692 -6.19,4.012 -9.276,5.413 -2.737,1.239 -6.267,1.685 -9.229,2.248 -2.707,0.511 -7.08,1.822 -3.117,4.455 2.284,1.518 7.287,0.931 9.972,0.724 6.44,-0.499 13.017,-3.675 18.792,-6.383 C 0.048,9.443 3.729,7.887 7.138,6.061 9.347,4.879 12.772,2.548 10.692,0.185 8.554,-2.245 2.455,-1.096 0,0" /></g><g
               id="g4415"
               transform="translate(1186.661,691.256)"><path
                 inkscape:connector-curvature="0"
                 id="path4413"
                 style="fill:#e8bb6e;fill-opacity:1;fill-rule:nonzero;stroke:none"
                 d="m 0,0 c 0.96,-4.754 -0.483,-12.623 3.181,-16.437 1.868,-1.945 4.85,-2.53 7.074,-0.85 2.325,1.759 2.328,5.529 2.462,8.369 0.169,3.552 -0.119,7.795 0.392,11.396 0.443,3.108 2.069,5.695 2.582,8.928 0.924,5.819 2.575,13.273 -2.938,17.218 -5.907,4.229 -12.392,4.061 -19.052,1.679 -3.767,-1.346 -6.428,-2.202 -10.551,-2.246 -1.678,-0.019 -7.848,0.941 -8.928,-0.313 -3.476,-4.041 8.725,-8.67 11.077,-10.342 3.411,-2.423 7.234,-3.202 9.852,-6.731 C -2.591,7.627 -0.75,3.732 0,0" /></g><g
               id="g4419"
               transform="translate(1207.6932,698.2698)"><path
                 inkscape:connector-curvature="0"
                 id="path4417"
                 style="fill:#e8bb6e;fill-opacity:1;fill-rule:nonzero;stroke:none"
                 d="m 0,0 c 0.819,3.952 -0.726,14.75 2.139,17.312 1.743,1.563 7.624,1.61 9.967,0.869 2.371,-0.75 5.218,-3.007 7.017,-4.79 3.946,-3.92 6.188,-12.18 4.071,-17.52 C 20.512,-10.893 11.552,-17.154 4.154,-16.801 -3.815,-16.423 -1.073,-5.199 0,0" /></g><g
               id="g4423"
               transform="translate(1256.6893,733.66)"><path
                 inkscape:connector-curvature="0"
                 id="path4421"
                 style="fill:#e8bb6e;fill-opacity:1;fill-rule:nonzero;stroke:none"
                 d="m 0,0 c 6.09,-0.23 13.177,-6.034 12.856,-12.726 -0.157,-3.265 -2.1,-4.862 -4.463,-6.473 -2.814,-1.921 -7.567,-8.887 -11.623,-6.575 -2.844,1.623 -4.133,9.449 -5.684,12.278 -1.878,3.433 -5.653,8.044 -1.814,11.402 C -8.118,0.187 -3.226,0.121 0,0" /></g></g></g></g><g
         transform="translate(1110.1981,632.5959)"
         id="g4429"><path
           inkscape:connector-curvature="0"
           id="path4431"
           style="fill:#efa76b;fill-opacity:1;fill-rule:nonzero;stroke:none"
           d="m 0,0 c -17.687,54.198 -75.492,47.768 -75.492,47.768 0,0 41.57,-1.38 75.492,-47.768" /></g><g
         transform="translate(1182.6542,659.5267)"
         id="g4433"><path
           inkscape:connector-curvature="0"
           id="path4435"
           style="fill:#efa76b;fill-opacity:1;fill-rule:nonzero;stroke:none"
           d="m 0,0 c -20.629,57.613 -75.022,47.153 -75.022,47.153 0,0 41.186,-1.385 75.022,-47.153" /></g><g
         transform="translate(1249.9569,692.8934)"
         id="g4437"><path
           inkscape:connector-curvature="0"
           id="path4439"
           style="fill:#efa76b;fill-opacity:1;fill-rule:nonzero;stroke:none"
           d="m 0,0 c -14.385,46.911 -49.448,35.707 -49.448,35.707 0,0 30.261,-0.636 49.448,-35.707" /></g><g
         transform="translate(1031.9579,617.6116)"
         id="g4441"><path
           inkscape:connector-curvature="0"
           id="path4443"
           style="fill:#efa76b;fill-opacity:1;fill-rule:nonzero;stroke:none"
           d="m 0,0 c -15.423,44.317 -49.448,35.705 -49.448,35.705 0,0 30.259,-0.634 49.448,-35.705" /></g></g><g
       id="g5539"
       transform="translate(508.2751,-166.75993)"><g
         transform="translate(1303.8954,343.3864)"
         id="g4445"><path
           inkscape:connector-curvature="0"
           id="path4447"
           style="fill:#cc9382;fill-opacity:1;fill-rule:nonzero;stroke:none"
           d="m 0,0 c 0.174,-14.928 -7.652,-30.75 -29.018,-46.23 -45.749,-33.155 -75.628,11.558 -148.283,11.558 -33.44,0 -125.381,-37.205 -147.938,-12.242 -6.784,7.506 -9.804,14.094 -8.732,21.051 l -0.168,-35.694 c 0.39,-5.556 3.413,-11.023 8.9,-17.093 22.557,-24.963 114.498,12.244 147.938,12.244 72.655,0 102.534,-44.717 148.283,-11.559 19.345,14.016 27.592,28.315 28.848,41.973 z" /></g><g
         transform="translate(969.8875,317.0721)"
         id="g4449"><path
           inkscape:connector-curvature="0"
           id="path4451"
           style="fill:#c07772;fill-opacity:1;fill-rule:nonzero;stroke:none"
           d="M 0,0 C -0.193,-1.504 -0.207,-2.99 -0.019,-4.477 Z" /></g><g
         transform="translate(1303.7255,314.7282)"
         id="g4453"><path
           inkscape:connector-curvature="0"
           id="path4455"
           style="fill:#c07772;fill-opacity:1;fill-rule:nonzero;stroke:none"
           d="m 0,0 c -1.256,-13.656 -9.503,-27.957 -28.848,-41.973 -45.749,-33.158 -75.629,11.557 -148.283,11.557 -33.44,0 -125.381,-37.205 -147.938,-12.242 -5.402,5.976 -8.403,11.369 -8.866,16.836 l -0.034,-7.076 c 0.39,-5.557 3.413,-11.024 8.9,-17.094 22.557,-24.963 114.498,12.244 147.938,12.244 72.654,0 102.534,-44.717 148.283,-11.559 C -9.503,-35.291 -1.256,-20.992 0,-7.334 L 0.17,28.658 C 0.178,28.002 0.15,27.342 0.125,26.684 Z" /></g><g
         transform="translate(1134.1962,432.1989)"
         id="g4457"><path
           inkscape:connector-curvature="0"
           id="path4459"
           style="fill:#cc9382;fill-opacity:1;fill-rule:nonzero;stroke:none"
           d="m 0,0 c 45.567,10.932 87.411,-2.596 111.291,-16.48 27.494,-15.987 97.755,-69.024 29.391,-118.563 -45.749,-33.154 -75.629,11.559 -148.284,11.559 -33.44,0 -125.38,-37.205 -147.938,-12.243 -21.942,24.276 -4.502,38.983 63.394,87.542 C -43.271,-13.227 -25.237,-6.049 0,0" /></g><g
         id="g4461"><g
           clip-path="url(#clipPath4467)"
           id="g4463"><g
             id="g4469"><g
               id="g4471" /><g
               mask="url(#mask4483)"
               id="g4495"><g
                 id="g4497"><path
                   inkscape:connector-curvature="0"
                   id="path4505"
                   style="fill:url(#linearGradient4503);stroke:none"
                   d="m 1134.196,432.199 c -25.238,-6.049 -43.271,-13.226 -92.146,-48.185 v 0 c -67.896,-48.559 -85.336,-63.267 -63.394,-87.541 v 0 c 22.558,-24.964 114.498,12.241 147.939,12.241 v 0 c 72.654,0 102.534,-44.713 148.283,-11.558 v 0 c 68.364,49.539 -1.896,102.576 -29.391,118.562 v 0 c -17.776,10.336 -45.498,20.473 -77.308,20.472 v 0 c -10.923,-10e-4 -22.335,-1.197 -33.983,-3.991" /></g></g></g></g></g><g
         transform="translate(1134.4589,425.0388)"
         id="g4515"><path
           inkscape:connector-curvature="0"
           id="path4517"
           style="fill:#cc303e;fill-opacity:1;fill-rule:nonzero;stroke:none"
           d="m 0,0 c 41.015,9.834 78.668,-2.342 100.156,-14.836 24.751,-14.389 87.986,-62.121 26.457,-106.705 -41.176,-29.84 -68.068,10.4 -133.456,10.4 -30.095,0 -112.842,-33.482 -133.149,-11.017 -19.74,21.845 -4.045,35.084 57.054,78.787 C -38.945,-11.908 -22.715,-5.449 0,0" /></g><g
         transform="translate(1208.4384,358.5563)"
         id="g4519"><path
           inkscape:connector-curvature="0"
           id="path4521"
           style="fill:#b92838;fill-opacity:1;fill-rule:nonzero;stroke:none"
           d="m 0,0 c -8.403,-2.807 -18.685,-0.668 -26.923,1.525 -11.241,2.987 -18.581,8.366 -17.679,19.346 1.712,2.654 3.264,5.44 5.421,7.953 5.364,6.256 18.677,7.455 26.203,8.219 C -5.825,37.768 1.909,34.117 8.138,31.147 24.557,23.316 11.145,3.725 0,0 m -31.3,-4.672 c 5.83,-2.191 11.903,-3.424 17.892,-3.512 -6.158,-0.501 -11.547,0.477 -17.892,3.512 m 28.624,48.008 c -18.996,5.816 -50.026,-3.271 -51.41,-26.363 -0.014,-0.201 0.053,-0.362 0.075,-0.541 -6.476,1.646 -15.178,-0.643 -20.977,-2.071 -1.955,-0.474 -1.12,-3.394 0.824,-2.99 7.69,1.602 14.766,1.553 22.516,0.973 0.203,-0.018 0.388,0.015 0.553,0.066 1.398,-4.189 4.616,-7.969 8.537,-10.984 -2.086,1.08 -4.199,2.09 -6.388,2.875 -9.346,3.348 -18.122,3.685 -27.769,1.924 -5.229,-0.955 -10.43,-1.801 -15.747,-2.049 -5.635,-0.262 -7.587,5.387 -1.608,7.642 2.46,0.928 5.138,1.379 7.701,1.905 10.965,2.224 20.893,7.277 31.924,9.064 1.079,0.176 0.966,1.811 0,2.065 -7.723,2.033 -15.032,-1.887 -22.286,-4.412 -6.805,-2.364 -14.145,-2.391 -20.97,-4.946 -7.028,-2.64 -10.71,-10.92 -2.723,-14.929 11.736,-5.879 30.378,3.459 43.169,1.255 19.874,-3.421 34.092,-24.558 55.014,-11.212 1.008,0.64 0.917,1.888 0.236,2.542 5.341,1.377 10.428,3.829 14.984,7.567 1.777,1.457 3.253,2.943 4.484,4.439 5.209,-7.668 12.212,-19.5 -3.899,-25.623 -6.069,-2.304 -14.034,-1.236 -20.237,-0.353 -13.174,1.867 -25.841,6.81 -38.547,10.574 -24.888,7.371 -46.284,2.98 -70.618,-4.342 -9.396,-2.83 -21.251,-7.722 -31.304,-6.119 -8.695,1.385 9.768,18.006 10.562,18.606 4.873,3.681 10.429,6.517 15.816,9.351 23.906,12.59 46.516,23.981 72.993,30.32 2.189,0.524 1.216,3.633 -0.91,3.299 -18.592,-2.912 -36.128,-9.156 -52.649,-18.099 -13.528,-7.329 -28.007,-13.846 -40.278,-23.198 -4.58,-3.49 -14.725,-13.06 -11.676,-20.056 3.184,-7.309 13.683,-4.678 19.724,-3.268 21.711,5.065 42.821,14.814 65.502,13.631 20.592,-1.074 39.901,-11.82 60.011,-15.691 11.789,-2.276 23.86,-2.073 33.381,5.845 10.274,8.541 1.522,22.184 -4.797,29.94 6.587,14.226 -7.611,28.588 -23.213,33.363 m 67.86,-66.256 c -4.032,-14.445 -19.399,-24.365 -32.611,-29.055 -14.719,-5.226 -30.682,1.192 -44.458,6.278 -12.689,4.683 -25.229,7.443 -38.692,8.605 -27.444,2.36 -56.478,-1.353 -83.263,-7.293 -19.665,-4.363 -41.217,-12.994 -61.655,-8.701 -14.148,2.969 -12.321,16.84 -7.974,27.33 3.368,5.182 9.026,8.385 14.023,11.756 2.133,1.443 4.342,2.797 6.562,4.141 1.121,-0.369 2.378,-0.309 3.592,0.478 24.348,15.793 45.124,36.143 70.658,50.377 27.704,15.444 59.689,21.783 90.822,14.813 13.473,-3.016 27.304,-8.639 40.04,-16.012 -2.37,0.135 -4.597,-3.141 -2.569,-5.586 9.519,-11.449 18.142,-23.547 23.465,-37.549 8.63,-22.715 -7.933,-38.48 -30.961,-34.265 -15.957,2.918 -30.533,11.16 -46.569,14.347 -16.619,3.301 -33.672,2.16 -50.267,-0.549 -19.934,-3.259 -39.075,-10.181 -59.135,-12.849 -10.329,-1.375 -21.862,-1.635 -31.485,2.822 -13.75,6.367 17.164,24.787 20.781,26.992 15.18,9.254 27.993,21.983 42.533,32.155 15.565,10.89 38.424,19.404 57.93,22.121 4.857,0.525 9.758,0.755 14.722,0.463 8.298,-0.493 16.301,-1.522 24.639,-1.139 11.782,0.537 20.117,-3.834 30.18,-9.287 1.176,-0.639 2.631,1.047 1.489,1.931 -15.02,11.653 -28.378,9.873 -46.404,10.883 -6.768,0.381 -13.047,0.237 -19.139,-0.326 -0.214,0.645 -0.818,1.166 -1.786,1.02 -22.692,-3.456 -48.378,-12.717 -67.706,-25.225 -11.277,-7.301 -21.497,-16.25 -32.346,-24.152 -7.78,-5.672 -17.106,-9.239 -24.378,-15.633 -9.66,-8.5 -14.176,-19.139 -0.207,-25.461 19.161,-8.674 47.908,0.258 67.084,4.799 29.4,6.968 56.94,10.582 86.471,2.095 17.141,-4.921 39.88,-19.89 58,-9.845 C 72.218,-22.68 42.598,17.32 24.365,38.555 34.636,32.391 44.114,25.088 52,17.078 62.509,6.41 69.356,-7.965 65.184,-22.92 m -279.141,-22.73 c -2.525,3.634 -1.706,8.047 0.472,12.347 -0.477,-2.464 -0.779,-4.978 -0.861,-7.525 -0.054,-1.75 0.09,-3.344 0.389,-4.822 M 74.79,-0.482 C 66.112,28.437 33.696,46.371 8.294,58.125 -54.958,87.389 -116.573,54.561 -166.116,14.27 c -5.793,-1.911 -11.003,-6.194 -15.979,-10.829 -10.94,-3.708 -19.977,-11.642 -25.692,-21.648 -0.791,-0.865 -1.509,-1.762 -2.117,-2.699 -8.172,-5.746 -13.847,-18.625 -9.437,-27.024 2.636,-5.015 7.358,-8.625 12.644,-10.582 4.463,-1.652 12.093,-4.873 16.98,-2.818 6.113,-0.535 12.28,-0.195 17.074,0.383 13.836,1.654 27.364,5.799 40.936,8.814 20.253,4.504 40.869,6.073 61.572,6.619 21.104,0.557 40.423,-3.209 59.991,-10.898 17.14,-6.74 32.435,-10.082 50.207,-3.772 24.353,8.645 42.451,33.963 34.727,59.702" /></g><g
         id="g4523"><g
           id="g4525" /><g
           id="g4583"><g
             style="opacity:0.60000598"
             id="g4581"
             clip-path="url(#clipPath4529)"><g
               id="g4579"><g
                 id="g4577"
                 clip-path="url(#clipPath4533)"><g
                   id="g4575"><g
                     id="g4567" /><g
                     id="g4573"
                     mask="url(#mask4547)"><g
                       id="g4571"><path
                         inkscape:connector-curvature="0"
                         id="path4569"
                         style="fill:url(#linearGradient4565);stroke:none"
                         d="m 1134.755,416.933 c 35.858,8.6 68.779,-2.045 87.568,-12.97 21.641,-12.58 76.926,-54.313 23.132,-93.293 -36.003,-26.092 -59.514,9.091 -116.683,9.091 -26.315,0 -98.661,-29.275 -116.415,-9.632 -17.261,19.101 -3.536,30.675 49.884,68.886 38.463,27.508 52.653,33.155 72.514,37.918" /></g></g></g></g></g></g></g></g><g
         transform="translate(1127.6161,315.2674)"
         id="g4585"><path
           inkscape:connector-curvature="0"
           id="path4587"
           style="fill:#c07772;fill-opacity:1;fill-rule:nonzero;stroke:none"
           d="m 0,0 c 27.4,0 47.803,-6.91 65.805,-13.006 13.328,-4.514 24.841,-8.41 36.329,-8.41 10.698,0 20.396,3.42 30.52,10.758 17.676,12.804 26.254,26.894 25.502,41.881 -1.594,31.752 -43.467,57.658 -51.842,62.527 -9.431,5.486 -35.023,18.242 -68.895,18.242 -10.248,0 -20.429,-1.195 -30.259,-3.553 -23.472,-5.63 -40.121,-12.873 -82.455,-43.148 -43.71,-31.262 -63.013,-46.352 -64.445,-59.621 -0.579,-5.389 1.764,-10.674 7.606,-17.141 4.448,-4.914 12.39,-7.303 24.284,-7.303 18.082,0 42.16,5.688 63.403,10.711 C -26.905,-3.916 -10.333,0 0,0 m 102.127,-24.152 c -11.936,0 -23.648,3.962 -37.203,8.556 C 47.124,-9.568 26.948,-2.734 0,-2.734 c -10.016,0 -26.435,-3.885 -43.818,-7.991 -21.387,-5.056 -45.632,-10.787 -64.032,-10.787 -12.713,0 -21.322,2.684 -26.314,8.207 -6.324,6.998 -8.961,13.119 -8.3,19.268 1.562,14.441 20.197,29.094 65.577,61.551 42.707,30.549 59.569,37.869 83.411,43.587 10.036,2.407 20.43,3.629 30.895,3.629 34.537,0 60.645,-13.017 70.269,-18.613 8.593,-4.992 51.537,-31.592 53.201,-64.76 0.802,-15.966 -8.156,-30.849 -26.631,-44.234 -10.612,-7.695 -20.822,-11.275 -32.124,-11.275 z" /></g><g
         transform="translate(1222.5829,379.695)"
         id="g4589"><path
           inkscape:connector-curvature="0"
           id="path4591"
           style="fill:#ffdfd0;fill-opacity:1;fill-rule:nonzero;stroke:none"
           d="m 0,0 c 0.874,-9.809 -11.671,-18.947 -28.023,-20.404 -16.349,-1.461 -30.314,5.306 -31.188,15.117 -0.877,9.809 11.668,18.947 28.019,20.404 C -14.844,16.578 -0.879,9.811 0,0" /></g><g
         transform="translate(1214.6766,373.5799)"
         id="g4593"><path
           inkscape:connector-curvature="0"
           id="path4595"
           style="fill:#cc9382;fill-opacity:1;fill-rule:nonzero;stroke:none"
           d="m 0,0 c -3.79,-7.441 -16.694,-7.565 -23.686,-8.063 -5.33,-0.378 -10.565,-0.056 -15.503,2.184 -3.291,1.49 -4.664,3.709 -4.826,6.082 0.536,0.045 1.097,0.24 1.653,0.662 6.967,5.276 11.15,10.772 20.459,11.863 C -14.298,13.623 6.961,13.688 0,0 m -4.588,18.027 c -10.523,3.801 -24.295,3.602 -33.967,-2.595 -11.375,-0.545 -14.257,-18.662 -5.341,-24.764 11.953,-8.172 31.375,-6.617 43.393,0.678 12.141,7.375 7.937,22.343 -4.085,26.681" /></g><g
         transform="translate(1195.8103,393.6404)"
         id="g4597"><path
           inkscape:connector-curvature="0"
           id="path4599"
           style="fill:#a6621f;fill-opacity:1;fill-rule:nonzero;stroke:none"
           d="m 0,0 c -1.423,0 -2.866,-0.064 -4.297,-0.191 -7.665,-0.682 -14.692,-3.102 -19.79,-6.813 -4.886,-3.56 -7.366,-7.859 -6.986,-12.103 0.714,-8.022 11.637,-14.071 25.407,-14.071 1.417,0 2.859,0.067 4.293,0.192 7.664,0.681 14.692,3.103 19.787,6.812 4.892,3.563 7.376,7.862 6.995,12.11 C 24.69,-6.045 13.765,0 0,0 m -5.666,-35.914 c -15.45,0 -27.28,6.961 -28.135,16.562 -0.471,5.241 2.409,10.413 8.106,14.561 5.49,4 13.001,6.6 21.155,7.324 1.512,0.141 3.041,0.207 4.54,0.207 15.442,0 27.274,-6.965 28.135,-16.56 0.47,-5.242 -2.41,-10.416 -8.109,-14.563 -5.491,-4.004 -13.002,-6.603 -21.154,-7.328 -1.514,-0.141 -3.04,-0.203 -4.538,-0.203" /></g></g><g
       id="g5469"
       transform="translate(1352.3544,519.69702)"><g
         transform="translate(271.1639,428.8748)"
         id="g4601"><path
           inkscape:connector-curvature="0"
           id="path4603"
           style="fill:#ffffff;fill-opacity:1;fill-rule:nonzero;stroke:none"
           d="m 0,0 c 0,0 -42.501,4.1 -63.321,-9.16 -20.831,-13.256 -34.026,-9.836 -45.803,-21.781 -11.771,-11.952 -7.819,-23.372 -29.923,-37.014 -22.098,-13.641 -37.883,-23.418 -35.837,-42.012 2.036,-18.603 8.809,-36.244 20.803,-43.41 12.001,-7.16 48.619,-14.051 71.433,-10.477 22.814,3.579 40.368,-2.65 74.396,-7.158 34.05,-4.506 83.8,4.285 105.418,15.575 21.624,11.298 29.476,17.138 52.056,37.921 22.581,20.782 23.152,29.655 21.141,48.891 -2.014,19.228 -7.768,43.807 -27.056,45.728 -19.289,1.918 -33.642,9.926 -52.751,16.907 C 71.433,0.978 38.558,5.709 29.712,3.119 20.868,0.523 0,0 0,0" /></g><g
         id="g4605"><g
           id="g4607" /><g
           id="g4619"><g
             style="opacity:0.39999402"
             id="g4617"
             clip-path="url(#clipPath4611)"><g
               id="g4615"
               transform="translate(414.4706,405.9782)"><path
                 inkscape:connector-curvature="0"
                 id="path4613"
                 style="fill:#ffd39b;fill-opacity:1;fill-rule:nonzero;stroke:none"
                 d="m 0,0 c -19.289,1.918 -33.642,9.926 -52.751,16.906 -11.747,4.281 -28.691,7.721 -42.06,9.127 -0.536,-0.375 -0.986,-0.775 -1.328,-1.205 -5.253,-6.697 26.843,-6.162 38.134,-10.697 C -46.718,9.596 -38.81,6.078 -34.563,0.795 -30.307,-4.484 7.72,-6.096 4.981,-16.592 2.244,-27.094 7.781,-35.285 8.258,-48.539 8.733,-61.801 3.85,-67.445 -16.45,-81.955 c -20.302,-14.518 -29.146,-13.656 -46.407,-27.102 -17.261,-13.445 -53.134,-12.353 -82.463,-8.128 -29.308,4.22 -54.045,-5.491 -71.501,2.839 -17.456,8.33 -27.265,3.399 -34.027,9.059 -6.753,5.668 -11.615,10.478 -5.125,20.517 6.491,10.04 -0.531,15.508 -1.949,25.34 -1.403,9.834 8.673,13.676 27.758,24.785 19.073,11.11 13.524,18.5 19.693,33.46 6.166,14.953 45.171,20.578 50.063,22.958 1.286,0.627 2.312,1.184 3.217,1.717 -14.275,0.084 -36.219,-1.342 -49.437,-9.754 -20.831,-13.256 -34.025,-9.836 -45.803,-21.781 -11.77,-11.951 -7.819,-23.371 -29.923,-37.014 -22.097,-13.64 -37.882,-23.418 -35.836,-42.011 2.036,-18.604 8.808,-36.244 20.802,-43.41 12.001,-7.161 48.619,-14.051 71.433,-10.477 22.814,3.578 40.368,-2.65 74.396,-7.158 34.05,-4.506 83.8,4.285 105.418,15.574 21.624,11.299 29.476,17.139 52.056,37.922 22.581,20.781 23.152,29.654 21.142,48.891 C 25.042,-26.5 19.288,-1.922 0,0" /></g></g></g></g><g
         id="g4621"><g
           id="g4623" /><g
           id="g4635"><g
             style="opacity:0.39999402"
             id="g4633"
             clip-path="url(#clipPath4627)"><g
               id="g4631"
               transform="translate(426.0887,319.9529)"><path
                 inkscape:connector-curvature="0"
                 id="path4629"
                 style="fill:#ffd39b;fill-opacity:1;fill-rule:nonzero;stroke:none"
                 d="m 0,0 c -22.58,-20.783 -30.432,-26.623 -52.056,-37.922 -21.618,-11.287 -71.368,-20.08 -105.417,-15.572 -34.03,4.508 -51.583,10.738 -74.397,7.154 -22.814,-3.572 -59.432,3.32 -71.433,10.479 -11.994,7.168 -18.766,24.808 -20.802,43.41 -0.527,4.777 0.133,8.974 1.766,12.801 -5.542,-6.082 -8.417,-12.797 -7.47,-21.395 2.037,-18.603 8.809,-36.244 20.803,-43.41 12.001,-7.16 48.619,-14.051 71.433,-10.477 22.814,3.579 40.368,-2.65 74.396,-7.158 34.05,-4.506 83.8,4.285 105.418,15.574 21.624,11.299 29.476,17.139 52.056,37.922 C 3.848,0.195 9.451,6.855 12.597,13.068 9.458,9.182 5.354,4.928 0,0" /></g></g></g></g><g
         id="g4637"><g
           id="g4639" /><g
           id="g4697"><g
             style="opacity:0.39999402"
             id="g4695"
             clip-path="url(#clipPath4643)"><g
               id="g4693"><g
                 id="g4691"
                 clip-path="url(#clipPath4647)"><g
                   id="g4689"><g
                     id="g4681" /><g
                     id="g4687"
                     mask="url(#mask4661)"><g
                       id="g4685"><path
                         inkscape:connector-curvature="0"
                         id="path4683"
                         style="fill:url(#linearGradient4679);stroke:none"
                         d="m 244.88,420.787 c -5.32,-2.594 -47.701,-8.699 -54.412,-24.957 -6.698,-16.25 -0.664,-24.279 -21.394,-36.356 -20.737,-12.072 -31.7,-16.246 -30.159,-26.935 1.534,-10.69 9.165,-16.629 2.114,-27.537 -7.055,-10.912 -1.773,-16.137 5.566,-22.293 7.353,-6.153 18.007,-0.793 36.982,-9.846 18.966,-9.057 45.852,1.502 77.704,-3.088 31.873,-4.586 70.853,-5.775 89.612,8.832 18.757,14.611 28.368,13.678 50.429,29.447 22.062,15.774 27.37,21.913 26.851,36.317 -0.515,14.41 -6.529,23.314 -3.557,34.722 2.977,11.409 -38.356,13.159 -42.969,18.897 -4.621,5.738 -13.216,9.566 -25.476,14.492 -12.278,4.926 -47.157,4.346 -41.448,11.623 0.375,0.467 0.863,0.906 1.446,1.309 -9.119,0.965 -16.706,1.066 -20.417,-0.018 -9.606,-2.824 -32.288,-3.39 -32.288,-3.39 0,0 -6.165,0.589 -15.088,0.646 -0.986,-0.576 -2.102,-1.185 -3.496,-1.865" /></g></g></g></g></g></g></g></g><g
         transform="translate(348.1834,391.6736)"
         id="g4699"><path
           inkscape:connector-curvature="0"
           id="path4701"
           style="fill:#faaf40;fill-opacity:1;fill-rule:nonzero;stroke:none"
           d="m 0,0 c 0,-20.744 -33.655,-32.18 -65.433,-32.18 -31.78,0 -49.649,11.436 -49.649,32.18 0,20.74 25.762,37.553 57.542,37.553 C -25.762,37.553 0,20.74 0,0" /></g><g
         id="g4703"><g
           id="g4705" /><g
           id="g4717"><g
             style="opacity:0.39999402"
             id="g4715"
             clip-path="url(#clipPath4709)"><g
               id="g4713"
               transform="translate(286.5623,367.57)"><path
                 inkscape:connector-curvature="0"
                 id="path4711"
                 style="fill:#faaf40;fill-opacity:1;fill-rule:nonzero;stroke:none"
                 d="m 0,0 c -31.129,0 -49.857,10.193 -52.986,28.846 -0.302,-1.553 -0.475,-3.137 -0.475,-4.742 0,-20.745 17.869,-32.18 49.65,-32.18 27.091,0 55.531,8.318 63.333,23.623 C 46.203,5.406 22.664,0 0,0" /></g></g></g></g><g
         id="g4719"><g
           id="g4721" /><g
           id="g4775"><g
             style="opacity:0.39999402"
             id="g4773"
             clip-path="url(#clipPath4725)"><g
               id="g4771"><g
                 id="g4769"
                 clip-path="url(#clipPath4729)"><g
                   id="g4767"><g
                     id="g4759" /><g
                     id="g4765"
                     mask="url(#mask4741)"><g
                       id="g4763"><path
                         inkscape:connector-curvature="0"
                         id="path4761"
                         style="fill:url(#linearGradient4757);stroke:none"
                         d="m 298.325,411.926 c 0.218,-7.522 -9.534,-14.278 -21.784,-15.084 -12.251,-0.805 -22.357,4.632 -22.576,12.156 -0.218,7.525 9.535,14.281 21.785,15.086 12.25,0.806 22.355,-4.633 22.575,-12.158" /></g></g></g></g></g></g></g></g></g><g
       id="g5751"
       transform="translate(410.04666,-201.02566)"><g
         transform="translate(323.3582,660.3489)"
         id="g4037"><path
           inkscape:connector-curvature="0"
           id="path4039"
           style="fill:#faaf40;fill-opacity:1;fill-rule:nonzero;stroke:none"
           d="M 0,0 C 1.443,7.75 6.561,11.564 12.377,12.314 V 57.63 c 0.101,1.226 0.16,2.459 0.16,3.698 0,1.239 -0.059,2.473 -0.16,3.696 v 0.591 h -0.063 c -3.809,39.437 -59.792,70.735 -128.316,70.735 -68.522,0 -124.506,-31.298 -128.314,-70.735 h -0.063 v -0.591 c -0.101,-1.223 -0.16,-2.457 -0.16,-3.696 0,-1.239 0.059,-2.472 0.16,-3.698 V 8.222 c -0.101,-1.225 -0.16,-2.456 -0.16,-3.699 0,-1.237 0.059,-2.47 0.16,-3.696 v -1.66 h 0.201 c 4.713,-38.931 60.278,-69.665 128.176,-69.665 24.85,0 48.031,4.129 67.688,11.258 0.58,0.399 10.282,7.217 10.282,15.538 v 36.123 c 12.567,-3.58 27.229,-7.288 34.793,-7.523 C -1.626,-10.049 -0.833,-4.471 0,0" /></g><g
         transform="translate(78.9794,721.7308)"
         id="g4041"><path
           inkscape:connector-curvature="0"
           id="path4043"
           style="fill:#f5961d;fill-opacity:1;fill-rule:nonzero;stroke:none"
           d="M 0,0 C -0.05,0.603 -0.051,1.214 -0.079,1.821 -0.106,1.195 -0.16,0.573 -0.16,-0.054 c 0,-1.239 0.058,-2.472 0.16,-3.697 z" /></g><g
         transform="translate(275.0447,604.8612)"
         id="g4045"><path
           inkscape:connector-curvature="0"
           id="path4047"
           style="fill:#f5961d;fill-opacity:1;fill-rule:nonzero;stroke:none"
           d="m 0,0 c -19.657,-7.13 -42.839,-11.258 -67.688,-11.258 -67.899,0 -123.463,30.734 -128.176,69.663 h -0.201 v 1.662 c -0.05,0.603 -0.051,1.213 -0.079,1.822 -0.028,-0.625 -0.082,-1.248 -0.082,-1.878 0,-1.237 0.059,-2.47 0.161,-3.696 v -1.66 h 0.201 c 4.713,-38.931 60.277,-69.665 128.176,-69.665 24.849,0 48.031,4.129 67.688,11.258 0.579,0.398 10.281,7.216 10.281,15.538 v 3.749 C 10.281,7.216 0.579,0.398 0,0" /></g><g
         transform="translate(323.3582,664.1005)"
         id="g4049"><path
           inkscape:connector-curvature="0"
           id="path4051"
           style="fill:#f5961d;fill-opacity:1;fill-rule:nonzero;stroke:none"
           d="m 0,0 c -0.833,-4.473 -1.626,-10.049 -3.239,-15.101 -7.564,0.234 -22.226,3.942 -34.793,7.523 v -3.752 c 12.567,-3.581 27.229,-7.289 34.793,-7.523 1.613,5.052 2.406,10.63 3.239,15.101 1.443,7.75 6.561,11.564 12.377,12.315 v 3.749 C 6.561,11.564 1.443,7.75 0,0" /></g><g
         transform="translate(335.7351,721.7308)"
         id="g4053"><path
           inkscape:connector-curvature="0"
           id="path4055"
           style="fill:#f5961d;fill-opacity:1;fill-rule:nonzero;stroke:none"
           d="m 0,0 v -3.751 c 0.101,1.225 0.16,2.458 0.16,3.697 0,0.627 -0.053,1.249 -0.082,1.875 C 0.051,1.214 0.05,0.603 0,0" /></g><g
         transform="translate(-69.9639,35.7945)"
         id="g4057"><g
           id="g4059" /><g
           id="g4113"><g
             style="opacity:0.39999402"
             id="g4111"
             clip-path="url(#clipPath4063)"><g
               id="g4109"><g
                 id="g4107"
                 clip-path="url(#clipPath4067)"><g
                   id="g4105"><g
                     id="g4097" /><g
                     id="g4103"
                     mask="url(#mask4079)"><g
                       id="g4101"><path
                         inkscape:connector-curvature="0"
                         id="path4099"
                         style="fill:url(#linearGradient4095);stroke:none"
                         d="m 375.654,705.71 c 0,-24.565 -44.145,-44.479 -98.602,-44.479 -54.455,0 -98.6,19.914 -98.6,44.479 0,24.562 44.145,44.476 98.6,44.476 54.457,0 98.602,-19.914 98.602,-44.476" /></g></g></g></g></g></g></g></g><g
         transform="translate(335.7351,717.9794)"
         id="g4115"><path
           inkscape:connector-curvature="0"
           id="path4117"
           style="fill:#ffcb03;fill-opacity:1;fill-rule:nonzero;stroke:none"
           d="M 0,0 C 0.101,1.225 0.16,2.459 0.16,3.698 0.16,4.937 0.101,6.171 0,7.394 v 0.59 h -0.062 c -0.742,7.67 -3.477,15.024 -7.873,21.907 -11.972,10.48 -27.558,8.212 -27.558,8.212 l -99.227,-7.97 71.166,-40.001 c 13.266,-5.726 13.145,-22.875 13.145,-22.875 v -32.466 c 12.982,-3.699 28.224,-7.547 35.542,-7.547 8.805,0 12.409,5.571 13.876,9.752 -0.092,-0.408 -0.233,-0.808 -0.336,-1.216 0.483,1.899 0.89,3.812 1.125,5.757 H 0 v 1.66 c 0.101,1.226 0.16,2.459 0.16,3.696 0,1.243 -0.059,2.473 -0.16,3.699 z" /></g><g
         transform="translate(285.326,685.2362)"
         id="g4119"><path
           inkscape:connector-curvature="0"
           id="path4121"
           style="fill:#f5961d;fill-opacity:1;fill-rule:nonzero;stroke:none"
           d="m 0,0 v -32.466 c 2.329,-0.663 4.732,-1.329 7.146,-1.983 v 35.88 c 0,19.29 -11.432,23.578 -11.432,23.578 L -84.311,62.877 -13.145,22.875 C 0.121,17.149 0,0 0,0" /></g><g
         transform="translate(334.744,654.9755)"
         id="g4123"><path
           inkscape:connector-curvature="0"
           id="path4125"
           style="fill:#f5961d;fill-opacity:1;fill-rule:nonzero;stroke:none"
           d="M 0,0 C -0.044,-0.125 -0.097,-0.255 -0.146,-0.386 -0.212,-0.661 -0.265,-0.939 -0.336,-1.216 -0.232,-0.808 -0.092,-0.408 0,0" /></g><g
         transform="translate(335.7743,718.9055)"
         id="g4127"><path
           inkscape:connector-curvature="0"
           id="path4129"
           style="fill:#f5961d;fill-opacity:1;fill-rule:nonzero;stroke:none"
           d="m 0,0 -33.3,-63.141 v -7.521 c 7.449,-1.763 14.216,-3.02 18.394,-3.02 8.539,0 12.179,5.235 13.73,9.366 0.393,1.628 0.735,3.267 0.935,4.927 h 0.202 v 1.66 c 0.1,1.226 0.16,2.459 0.16,3.696 0,1.243 -0.06,2.473 -0.16,3.699 V -0.926 C -0.015,-0.618 -0.02,-0.309 0,0" /></g><g
         transform="translate(311.0476,652.1887)"
         id="g4131"><path
           inkscape:connector-curvature="0"
           id="path4133"
           style="fill:#faaf40;fill-opacity:1;fill-rule:nonzero;stroke:none"
           d="m 0,0 37.154,78.062 c 0,0 55.732,10.357 74.309,-31.975 0,0 -12.147,-38.759 -14.29,-39.474 C 95.029,5.899 0,0 0,0" /></g><g
         transform="translate(311.0476,652.1887)"
         id="g4135"><path
           inkscape:connector-curvature="0"
           id="path4137"
           style="fill:#ffcb03;fill-opacity:1;fill-rule:nonzero;stroke:none"
           d="m 0,0 v -60.016 l 111.463,45.933 v 60.17 z" /></g><g
         transform="translate(281.575,736.3245)"
         id="g4139"><path
           inkscape:connector-curvature="0"
           id="path4141"
           style="fill:#f5961d;fill-opacity:1;fill-rule:nonzero;stroke:none"
           d="m 0,0 c 0,-4.955 -4.017,-8.969 -8.972,-8.969 -4.954,0 -8.969,4.014 -8.969,8.969 0,4.957 4.015,8.973 8.969,8.973 C -4.017,8.973 0,4.957 0,0" /></g><g
         transform="translate(277.5633,738.4232)"
         id="g4143"><path
           inkscape:connector-curvature="0"
           id="path4145"
           style="fill:#ffcb03;fill-opacity:1;fill-rule:nonzero;stroke:none"
           d="m 0,0 c 0,-4.437 -3.598,-8.036 -8.036,-8.036 -4.44,0 -8.037,3.599 -8.037,8.036 0,4.438 3.597,8.039 8.037,8.039 C -3.598,8.039 0,4.438 0,0" /></g><g
         transform="translate(325.7752,707.098)"
         id="g4147"><path
           inkscape:connector-curvature="0"
           id="path4149"
           style="fill:#f5961d;fill-opacity:1;fill-rule:nonzero;stroke:none"
           d="m 0,0 c 0,-4.955 -4.017,-8.969 -8.972,-8.969 -4.953,0 -8.969,4.014 -8.969,8.969 0,4.957 4.016,8.973 8.969,8.973 C -4.017,8.973 0,4.957 0,0" /></g><g
         transform="translate(321.7645,709.1965)"
         id="g4151"><path
           inkscape:connector-curvature="0"
           id="path4153"
           style="fill:#ffcb03;fill-opacity:1;fill-rule:nonzero;stroke:none"
           d="m 0,0 c 0,-4.437 -3.6,-8.036 -8.037,-8.036 -4.44,0 -8.037,3.599 -8.037,8.036 0,4.44 3.597,8.038 8.037,8.038 C -3.6,8.038 0,4.44 0,0" /></g><g
         transform="translate(250.1551,738.4055)"
         id="g4155"><path
           inkscape:connector-curvature="0"
           id="path4157"
           style="fill:#f5961d;fill-opacity:1;fill-rule:nonzero;stroke:none"
           d="m 0,0 c 0,-3.368 -2.73,-6.096 -6.1,-6.096 -3.366,0 -6.098,2.728 -6.098,6.096 0,3.369 2.732,6.101 6.098,6.101 C -2.73,6.101 0,3.369 0,0" /></g><g
         transform="translate(247.4275,739.8309)"
         id="g4159"><path
           inkscape:connector-curvature="0"
           id="path4161"
           style="fill:#ffcb03;fill-opacity:1;fill-rule:nonzero;stroke:none"
           d="m 0,0 c 0,-3.016 -2.445,-5.463 -5.463,-5.463 -3.018,0 -5.465,2.447 -5.465,5.463 0,3.019 2.447,5.467 5.465,5.467 C -2.445,5.467 0,3.019 0,0" /></g><g
         transform="translate(323.6736,735.286)"
         id="g4163"><path
           inkscape:connector-curvature="0"
           id="path4165"
           style="fill:#f5961d;fill-opacity:1;fill-rule:nonzero;stroke:none"
           d="m 0,0 c 0,-6.573 -5.332,-11.904 -11.909,-11.904 -6.575,0 -11.906,5.331 -11.906,11.904 0,6.579 5.331,11.91 11.906,11.91 C -5.332,11.91 0,6.579 0,0" /></g><g
         transform="translate(319.7595,736.9086)"
         id="g4167"><path
           inkscape:connector-curvature="0"
           id="path4169"
           style="fill:#ffcb03;fill-opacity:1;fill-rule:nonzero;stroke:none"
           d="m 0,0 c 0,-5.891 -4.776,-10.667 -10.667,-10.667 -5.892,0 -10.668,4.776 -10.668,10.667 0,5.891 4.776,10.668 10.668,10.668 C -4.776,10.668 0,5.891 0,0" /></g><g
         transform="translate(407.6179,662.6942)"
         id="g4171"><path
           inkscape:connector-curvature="0"
           id="path4173"
           style="fill:#f5961d;fill-opacity:1;fill-rule:nonzero;stroke:none"
           d="m 0,0 c 0,-6.577 -5.332,-11.907 -11.908,-11.907 -6.575,0 -11.907,5.33 -11.907,11.907 0,6.574 5.332,11.906 11.907,11.906 C -5.332,11.906 0,6.574 0,0" /></g><g
         transform="translate(403.7049,664.3129)"
         id="g4175"><path
           inkscape:connector-curvature="0"
           id="path4177"
           style="fill:#ffcb03;fill-opacity:1;fill-rule:nonzero;stroke:none"
           d="m 0,0 c 0,-5.89 -4.775,-10.664 -10.668,-10.664 -5.891,0 -10.667,4.774 -10.667,10.664 0,5.892 4.776,10.669 10.667,10.669 C -4.775,10.669 0,5.892 0,0" /></g><g
         transform="translate(367.2214,636.8392)"
         id="g4179"><path
           inkscape:connector-curvature="0"
           id="path4181"
           style="fill:#f5961d;fill-opacity:1;fill-rule:nonzero;stroke:none"
           d="m 0,0 c 0,-4.017 -3.256,-7.274 -7.275,-7.274 -4.017,0 -7.276,3.257 -7.276,7.274 0,4.02 3.259,7.274 7.276,7.274 C -3.256,7.274 0,4.02 0,0" /></g><g
         transform="translate(364.8308,637.8284)"
         id="g4183"><path
           inkscape:connector-curvature="0"
           id="path4185"
           style="fill:#ffcb03;fill-opacity:1;fill-rule:nonzero;stroke:none"
           d="m 0,0 c 0,-3.6 -2.917,-6.514 -6.518,-6.514 -3.6,0 -6.517,2.914 -6.517,6.514 0,3.602 2.917,6.519 6.517,6.519 C -2.917,6.519 0,3.602 0,0" /></g><g
         transform="translate(334.8738,637.2714)"
         id="g4187"><path
           inkscape:connector-curvature="0"
           id="path4189"
           style="fill:#f5961d;fill-opacity:1;fill-rule:nonzero;stroke:none"
           d="m 0,0 c 0,-4.254 -3.451,-7.707 -7.708,-7.707 -4.255,0 -7.703,3.453 -7.703,7.707 0,4.258 3.448,7.708 7.703,7.708 C -3.451,7.708 0,4.258 0,0" /></g><g
         transform="translate(332.3416,638.3206)"
         id="g4191"><path
           inkscape:connector-curvature="0"
           id="path4193"
           style="fill:#ffcb03;fill-opacity:1;fill-rule:nonzero;stroke:none"
           d="m 0,0 c 0,-3.812 -3.091,-6.905 -6.904,-6.905 -3.813,0 -6.904,3.093 -6.904,6.905 0,3.814 3.091,6.903 6.904,6.903 C -3.091,6.903 0,3.814 0,0" /></g><g
         transform="translate(297.9012,717.843)"
         id="g4195"><path
           inkscape:connector-curvature="0"
           id="path4197"
           style="fill:#f5961d;fill-opacity:1;fill-rule:nonzero;stroke:none"
           d="m 0,0 c 0,-2.827 -2.294,-5.119 -5.121,-5.119 -2.83,0 -5.122,2.292 -5.122,5.119 0,2.832 2.292,5.124 5.122,5.124 C -2.294,5.124 0,2.832 0,0" /></g><g
         transform="translate(296.2176,718.5399)"
         id="g4199"><path
           inkscape:connector-curvature="0"
           id="path4201"
           style="fill:#ffcb03;fill-opacity:1;fill-rule:nonzero;stroke:none"
           d="m 0,0 c 0,-2.532 -2.054,-4.587 -4.587,-4.587 -2.534,0 -4.589,2.055 -4.589,4.587 0,2.536 2.055,4.59 4.589,4.59 C -2.054,4.59 0,2.536 0,0" /></g><g
         transform="translate(307.9041,681.9813)"
         id="g4203"><path
           inkscape:connector-curvature="0"
           id="path4205"
           style="fill:#f5961d;fill-opacity:1;fill-rule:nonzero;stroke:none"
           d="m 0,0 c 0,-2.825 -2.294,-5.12 -5.121,-5.12 -2.83,0 -5.122,2.295 -5.122,5.12 0,2.83 2.292,5.125 5.122,5.125 C -2.294,5.125 0,2.83 0,0" /></g><g
         transform="translate(306.2195,682.6785)"
         id="g4207"><path
           inkscape:connector-curvature="0"
           id="path4209"
           style="fill:#ffcb03;fill-opacity:1;fill-rule:nonzero;stroke:none"
           d="m 0,0 c 0,-2.531 -2.054,-4.589 -4.586,-4.589 -2.534,0 -4.589,2.058 -4.589,4.589 0,2.536 2.055,4.59 4.589,4.59 C -2.054,4.59 0,2.536 0,0" /></g><g
         transform="translate(311.0476,648.1594)"
         id="g4211"><path
           inkscape:connector-curvature="0"
           id="path4213"
           style="fill:#f5961d;fill-opacity:1;fill-rule:nonzero;stroke:none"
           d="m 0,0 111.463,46.729 v 3.387 L 0,4.029 Z" /></g><g
         transform="translate(-69.9639,35.7945)"
         id="g4215"><g
           id="g4217" /><g
           id="g4271"><g
             style="opacity:0.39999402"
             id="g4269"
             clip-path="url(#clipPath4221)"><g
               id="g4267"><g
                 id="g4265"
                 clip-path="url(#clipPath4225)"><g
                   id="g4263"><g
                     id="g4255" /><g
                     id="g4261"
                     mask="url(#mask4237)"><g
                       id="g4259"><path
                         inkscape:connector-curvature="0"
                         id="path4257"
                         style="fill:url(#linearGradient4253);stroke:none"
                         d="m 419.952,691.561 -33.184,-66.527 92.845,51.895 c 0,0 -29.295,21.028 -59.661,14.632" /></g></g></g></g></g></g></g></g><g
         transform="translate(171.3332,677.4275)"
         id="g4777"><path
           inkscape:connector-curvature="0"
           id="path4779"
           style="fill:#ffcb03;fill-opacity:1;fill-rule:nonzero;stroke:none"
           d="M 0,0 C 43.333,-57.748 148.786,-28.428 148.786,-28.428 148.786,-28.428 49.333,-45.974 0,0" /></g></g></g></svg>